<?xml version="1.0" encoding="utf-8"?>
<!-- Generator: Adobe Illustrator 19.2.0, SVG Export Plug-In . SVG Version: 6.00 Build 0)  -->
<svg version="1.1" id="Layer_1" xmlns="http://www.w3.org/2000/svg" xmlns:xlink="http://www.w3.org/1999/xlink" x="0px" y="0px"
	 width="300px" height="200px" viewBox="0 0 300 200" style="enable-background:new 0 0 300 200;" xml:space="preserve">
<style type="text/css">
	.st0{fill:#EEF5FF;}
</style>
<title>icon-background</title>
<g id="Layer_1-2">
	<path class="st0" d="M296.1,100.1L296.1,100.1c0-11-9-20-20-20h-52c-11,0-20-9-20-20l0,0c0-11,9-20,20-20h8c11,0,20-9,20-20l0,0
		c0-11-9-20-20-20h-188c-11,0-20,9-20,20l0,0c0,11,9,20,20,20h6c11,0,20,9,20,20l0,0c0,11-9,20-20,20h-5c-11,0-20,9-20,20l0,0
		c0,11,9,20,20,20h15c11,0,20,9,20,20l0,0c0,11-9,20-20,20h-29c-11,0-20,9-20,20l0,0c0,11,9,20,20,20h199c11,0,20-9,20-20l0,0
		c0-11-9-20-20-20l0,0c-11,0-21-9-21-20l0,0c0-11,9-20,20-20h47C287.1,120.1,296.1,111.2,296.1,100.1z"/>
</g>
</svg>
