<?xml version="1.0" encoding="utf-8"?>
<!-- Generator: Adobe Illustrator 19.2.0, SVG Export Plug-In . SVG Version: 6.00 Build 0)  -->
<svg version="1.1" id="Layer_1" xmlns="http://www.w3.org/2000/svg" xmlns:xlink="http://www.w3.org/1999/xlink" x="0px" y="0px"
	 width="300px" height="200px" viewBox="0 0 300 200" style="enable-background:new 0 0 300 200;" xml:space="preserve">
<style type="text/css">
	.st0{fill:url(#SVGID_1_);}
	.st1{fill:#8C93A0;}
	.st2{fill:#B2B8C6;}
	.st3{fill:#D9DADE;}
	.st4{fill:none;stroke:#565352;stroke-width:2;stroke-linecap:round;stroke-linejoin:bevel;}
	.st5{fill:#565352;}
	.st6{clip-path:url(#SVGID_3_);}
	.st7{fill:#E06969;}
	.st8{fill:#FFF0F0;}
	.st9{fill:#FEAF91;}
	.st10{fill:#FFDA77;}
	.st11{fill:#FC7476;}
	.st12{fill:none;stroke:#40E088;stroke-width:3;stroke-miterlimit:10;}
	.st13{fill:none;stroke:#A79FFF;stroke-width:2;stroke-miterlimit:10;}
	.st14{fill:#A79FFF;}
	.st15{fill:#E467A6;}
</style>
<title>cs-bulb</title>
<linearGradient id="SVGID_1_" gradientUnits="userSpaceOnUse" x1="39.5547" y1="118.8094" x2="136.4422" y2="118.8094" gradientTransform="matrix(1 0 0 -1 0 202)">
	<stop  offset="0" style="stop-color:#FFB192"/>
	<stop  offset="1" style="stop-color:#E5907F"/>
</linearGradient>
<path class="st0" d="M88,32.4c-52.9,0-55.7,58.7-40.2,75.8c8.3,9.1,11.8,16.2,13.2,20.8c1,3.1,3.9,5.2,7.1,5.1h39.7
	c3.2,0.1,6.1-2,7.1-5.1c1.4-4.6,4.9-11.7,13.2-20.8C143.7,91,140.9,32.4,88,32.4z"/>
<path class="st1" d="M92.4,168h-8.5c-4.9,0-8.9-6-8.9-13h27.2C102.3,162,97.4,168,92.4,168z"/>
<path class="st2" d="M68.4,134h40.1c2.5,0,4.4,2,4.4,4.4v3.1c0,2.5-2,4.4-4.4,4.4H68.4c-2.5,0-4.4-2-4.4-4.4v-3.1
	C64,136,66,134,68.4,134z"/>
<path class="st3" d="M75.4,134h15.1c2.5,0,4.4,2,4.4,4.4v3.1c0,2.5-2,4.4-4.4,4.4H75.4c-2.5,0-4.4-2-4.4-4.4v-3.1
	C71,136,73,134,75.4,134z"/>
<path class="st2" d="M68.4,146h40.1c2.5,0,4.4,2,4.4,4.4v3.1c0,2.5-2,4.4-4.4,4.4H68.4c-2.5,0-4.4-2-4.4-4.4v-3.1
	C64,148,66,146,68.4,146z"/>
<path class="st3" d="M75.4,146h11.1c2.5,0,4.4,2,4.4,4.4v3.1c0,2.5-2,4.4-4.4,4.4H75.4c-2.5,0-4.4-2-4.4-4.4v-3.1
	C71,148,73,146,75.4,146z"/>
<path class="st4" d="M66.3,69.1c0,0,0-4.1,4.8-4.1s4.8,4.1,4.8,4.1"/>
<path class="st4" d="M103,69.1c0,0,0-4.1,4.9-4.1s4.8,4.1,4.8,4.1"/>
<path id="_Clipping_Path_2" class="st5" d="M95.7,92.6c-4.4,0.4-13.7-2.3-14-5.4l-0.2-1.3c-0.1-0.9,0.5-1.6,1.4-1.7c0,0,0,0,0,0
	l18.3-1.8c0.9-0.1,1.6,0.5,1.7,1.4c0,0,0,0,0,0l0.3,1.3C103.6,88.2,102.1,91.9,95.7,92.6z"/>
<g>
	<defs>
		<path id="SVGID_2_" d="M95.7,92.6c-4.4,0.4-13.7-2.3-14-5.4l-0.2-1.3c-0.1-0.9,0.5-1.6,1.4-1.7c0,0,0,0,0,0l18.3-1.8
			c0.9-0.1,1.6,0.5,1.7,1.4c0,0,0,0,0,0l0.3,1.3C103.6,88.2,102.1,91.9,95.7,92.6z"/>
	</defs>
	<clipPath id="SVGID_3_">
		<use xlink:href="#SVGID_2_"  style="overflow:visible;"/>
	</clipPath>
	<g class="st6">
		<circle class="st7" cx="95" cy="93.2" r="6.7"/>
	</g>
</g>
<circle class="st8" cx="64" cy="77.8" r="5.4"/>
<circle class="st8" cx="114.7" cy="78" r="5.4"/>
<path class="st9" d="M88.6,7.3h0.1c1.6,0,2.9,1.3,2.9,2.9v14.1c0,1.6-1.3,2.9-2.9,2.9h-0.1c-1.6,0-2.9-1.3-2.9-2.9V10.3
	C85.6,8.6,86.9,7.3,88.6,7.3z"/>
<path class="st9" d="M163.6,87.3v0.1c0,1.6-1.3,2.9-2.9,2.9h-14.1c-1.6,0-2.9-1.3-2.9-2.9v-0.1c0-1.6,1.3-2.9,2.9-2.9h14.1
	C162.3,84.3,163.6,85.6,163.6,87.3z"/>
<path class="st9" d="M32.6,87.3v0.1c0,1.6-1.3,2.9-2.9,2.9H15.6c-1.6,0-2.9-1.3-2.9-2.9v-0.1c0-1.6,1.3-2.9,2.9-2.9h14.1
	C31.3,84.3,32.6,85.6,32.6,87.3z"/>
<path class="st9" d="M44.5,44.6L44.5,44.6c-1.2,1.2-3.1,1.2-4.2,0.1l-10-10c-1.1-1.1-1.1-3,0-4.1l0.1-0.1c1.1-1.1,3-1.1,4.1,0l10,10
	C45.7,41.6,45.7,43.5,44.5,44.6z"/>
<path class="st9" d="M141.9,28.5L141.9,28.5c1.2,1.2,1.2,3.1,0.1,4.2l-10,10c-1.1,1.1-3,1.1-4.1,0l-0.1-0.1c-1.1-1.1-1.1-3,0-4.1
	l10-10C138.9,27.3,140.7,27.3,141.9,28.5z"/>
<path class="st9" d="M48.4,121.9L48.4,121.9c1.2,1.2,1.2,3.1,0.1,4.2l-10,10c-1.1,1.1-3,1.1-4.1,0l-0.1-0.1c-1.1-1.1-1.1-3,0-4.1
	l10-10C45.4,120.8,47.3,120.8,48.4,121.9z"/>
<path class="st9" d="M141.5,136.1L141.5,136.1c-1.2,1.2-3.1,1.2-4.2,0.1l-10-10c-1.1-1.1-1.1-3,0-4.1l0.1-0.1c1.1-1.1,3-1.1,4.1,0
	l10,10C142.7,133.1,142.7,134.9,141.5,136.1z"/>
<path class="st10" d="M20.9,70h8.2c1.1,0,1.9,0.9,1.9,1.9v0.2c0,1.1-0.9,1.9-1.9,1.9h-8.2c-1.1,0-1.9-0.9-1.9-1.9v-0.2
	C19,70.9,19.9,70,20.9,70z"/>
<path class="st10" d="M25,66L25,66c1.1,0,2,0.9,2,2v8c0,1.1-0.9,2-2,2l0,0c-1.1,0-2-0.9-2-2v-8C23,66.9,23.9,66,25,66z"/>
<path class="st11" d="M48.7,25.6H54c0.7,0,1.3,0.6,1.3,1.3v0c0,0.7-0.6,1.3-1.3,1.3h-5.3c-0.7,0-1.3-0.6-1.3-1.3v0
	C47.3,26.2,47.9,25.6,48.7,25.6z"/>
<path class="st11" d="M52.7,24.2v5.5c0,0.7-0.6,1.3-1.3,1.3h-0.2c-0.7,0-1.3-0.6-1.3-1.3v-5.5c0-0.7,0.6-1.3,1.3-1.3h0.2
	C52.1,23,52.7,23.5,52.7,24.2z"/>
<circle class="st12" cx="20.8" cy="105.2" r="4"/>
<circle class="st13" cx="7.8" cy="31.2" r="4"/>
<path class="st14" d="M115.1,23.7l-0.3-0.5c-1.2-2.4-3.2-4.3-5.6-5.4l0,0l0.5-0.3c2.3-1.2,4.2-3.1,5.3-5.4l0.1-0.2l0,0
	c1.1,2.4,2.9,4.3,5.2,5.5l0.7,0.3l-0.3,0.1C118.3,19.2,116.3,21.2,115.1,23.7L115.1,23.7L115.1,23.7z"/>
<path class="st15" d="M39,114.6l-0.2-0.3c-0.7-1.4-1.9-2.5-3.3-3.2l0,0l0.3-0.2c1.4-0.7,2.5-1.8,3.1-3.2l0.1-0.1l0,0
	c0.6,1.4,1.7,2.6,3.1,3.3l0.4,0.2l-0.2,0.1C40.9,112,39.7,113.2,39,114.6L39,114.6z"/>
<path class="st11" d="M14,22.6l-0.1-0.3c-0.7-1.4-1.9-2.5-3.4-3.2l0,0l0.3-0.1c1.4-0.7,2.5-1.8,3.1-3.2l0.1-0.1l0,0
	c0.6,1.4,1.7,2.6,3.1,3.3l0.4,0.2l-0.2,0.1C15.9,20,14.7,21.2,14,22.6L14,22.6z"/>
</svg>
