<?xml version="1.0" encoding="utf-8"?>
<!-- Generator: Adobe Illustrator 19.2.0, SVG Export Plug-In . SVG Version: 6.00 Build 0)  -->
<svg version="1.1" id="Layer_1" xmlns="http://www.w3.org/2000/svg" xmlns:xlink="http://www.w3.org/1999/xlink" x="0px" y="0px"
	 width="300px" height="200px" viewBox="0 0 300 200" style="enable-background:new 0 0 300 200;" xml:space="preserve">
<style type="text/css">
	.st0{fill:#EEF5FF;}
	.st1{fill:url(#SVGID_1_);}
	.st2{fill:url(#SVGID_2_);}
	.st3{fill:none;stroke:url(#SVGID_3_);stroke-width:3;stroke-miterlimit:10;}
	.st4{fill:#E567A6;}
	.st5{fill:none;stroke:url(#SVGID_4_);stroke-width:3;stroke-miterlimit:10;}
	.st6{fill:url(#SVGID_5_);}
	.st7{fill:url(#SVGID_6_);}
	.st8{fill:url(#_Clipping_Path_2_1_);}
	.st9{clip-path:url(#SVGID_8_);}
	.st10{fill:url(#SVGID_9_);}
	.st11{fill:url(#SVGID_10_);}
	.st12{fill:#FFDECC;}
	.st13{clip-path:url(#SVGID_12_);}
	.st14{fill:#E2BAA6;}
	.st15{clip-path:url(#SVGID_14_);}
	.st16{fill:#565352;}
	.st17{clip-path:url(#SVGID_16_);}
	.st18{fill:#FFF7F3;}
	.st19{fill:#EDCDBE;}
	.st20{fill:#FFDA77;}
	.st21{fill:#FC7476;}
	.st22{fill:none;stroke:#A79FFF;stroke-width:3;stroke-miterlimit:10;}
	.st23{fill:#4BB1E4;}
	.st24{fill:#40E088;}
	.st25{fill:#E467A6;}
</style>
<title>gd-astro</title>
<g id="Layer_1-2">
	<path class="st0" d="M296.1,100.1L296.1,100.1c0-11-9-20-20-20h-52c-11,0-20-9-20-20l0,0c0-11,9-20,20-20h8c11,0,20-9,20-20l0,0
		c0-11-9-20-20-20h-188c-11,0-20,9-20,20l0,0c0,11,9,20,20,20h6c11,0,20,9,20,20l0,0c0,11-9,20-20,20h-5c-11,0-20,9-20,20l0,0
		c0,11,9,20,20,20h15c11,0,20,9,20,20l0,0c0,11-9,20-20,20h-29c-11,0-20,9-20,20l0,0c0,11,9,20,20,20h199c11,0,20-9,20-20l0,0
		c0-11-9-20-20-20l0,0c-11,0-21-9-21-20l0,0c0-11,9-20,20-20h47C287.1,120.1,296.1,111.2,296.1,100.1z"/>
</g>
<linearGradient id="SVGID_1_" gradientUnits="userSpaceOnUse" x1="170" y1="70.505" x2="188" y2="70.505" gradientTransform="matrix(1 0 0 -1 0 202)">
	<stop  offset="0" style="stop-color:#FFB192"/>
	<stop  offset="1" style="stop-color:#E5907F"/>
</linearGradient>
<path class="st1" d="M181.9,160L181.9,160c5,0,6.1-4.7,6.1-9.6v-47c0-0.1-0.1-0.3-0.2-0.4h-6.1c-6.5,0.1-11.8,5.4-11.8,11.9l2,35.2
	C172,155.1,177,160,181.9,160z"/>
<linearGradient id="SVGID_2_" gradientUnits="userSpaceOnUse" x1="-392" y1="70.355" x2="-374.12" y2="70.355" gradientTransform="matrix(-1 0 0 -1 -128.12 202)">
	<stop  offset="0" style="stop-color:#FFB192"/>
	<stop  offset="1" style="stop-color:#E5907F"/>
</linearGradient>
<path class="st2" d="M251.9,160.3L251.9,160.3c-4.9,0-5.9-5-5.9-9.9v-47c0-0.1,0-0.3,0.1-0.4h6.1c6.5,0.1,11.8,5.4,11.8,11.9
	l-2,35.4C261.9,155.2,256.9,160.3,251.9,160.3z"/>
<linearGradient id="SVGID_3_" gradientUnits="userSpaceOnUse" x1="-472.15" y1="537.14" x2="-454.15" y2="537.14" gradientTransform="matrix(-1 0 0 1 -182.15 -473.64)">
	<stop  offset="0" style="stop-color:#FFB192"/>
	<stop  offset="1" style="stop-color:#E5907F"/>
</linearGradient>
<line class="st3" x1="272" y1="63.5" x2="290" y2="63.5"/>
<circle class="st4" cx="290.5" cy="63.2" r="3.4"/>
<linearGradient id="SVGID_4_" gradientUnits="userSpaceOnUse" x1="-119.15" y1="537.14" x2="-101.15" y2="537.14" gradientTransform="matrix(1 0 0 1 261.15 -473.64)">
	<stop  offset="0" style="stop-color:#FFB192"/>
	<stop  offset="1" style="stop-color:#E5907F"/>
</linearGradient>
<line class="st5" x1="160" y1="63.5" x2="142" y2="63.5"/>
<circle class="st4" cx="142.5" cy="63.2" r="3.4"/>
<linearGradient id="SVGID_5_" gradientUnits="userSpaceOnUse" x1="158.78" y1="138.82" x2="176.52" y2="138.82" gradientTransform="matrix(1 0 0 -1 0 202)">
	<stop  offset="0" style="stop-color:#FFB192"/>
	<stop  offset="1" style="stop-color:#E5907F"/>
</linearGradient>
<circle class="st6" cx="167.6" cy="63.2" r="8.9"/>
<linearGradient id="SVGID_6_" gradientUnits="userSpaceOnUse" x1="256.78" y1="138.82" x2="274.52" y2="138.82" gradientTransform="matrix(1 0 0 -1 0 202)">
	<stop  offset="0" style="stop-color:#FFB192"/>
	<stop  offset="1" style="stop-color:#E5907F"/>
</linearGradient>
<circle class="st7" cx="265.6" cy="63.2" r="8.9"/>
<linearGradient id="_Clipping_Path_2_1_" gradientUnits="userSpaceOnUse" x1="210.0909" y1="462.002" x2="244.7709" y2="554.662" gradientTransform="matrix(1 0 0 1 0 -400)">
	<stop  offset="0" style="stop-color:#FFB192"/>
	<stop  offset="1" style="stop-color:#E5907F"/>
</linearGradient>
<path id="_Clipping_Path_2" class="st8" d="M252.6,97.5c8.7-7.9,14.1-19.1,14.1-32.6c-0.8-27.3-23.6-48.9-50.9-48.1
	c-26.2,0.7-47.3,21.8-48.1,48.1C167.6,78.6,173,90,182,98c-2.4,1-3.9,3.3-4,5.9v0.1c0.1,2.9,2.1,5.4,4.9,6.2l3.1,36.1
	c0,18.8,12.3,34,31.1,34l0,0c18.8,0,31-15.4,31-34.2l3-36.1h0.8c3.2,0.1,5.9-2.4,6-5.6c0-0.1,0-0.3,0-0.4v-0.1
	C259,100.5,255.8,97.8,252.6,97.5z"/>
<g>
	<defs>
		<path id="SVGID_7_" d="M252.6,97.5c8.7-7.9,14.1-19.1,14.1-32.6c-0.8-27.3-23.6-48.9-50.9-48.1c-26.2,0.7-47.3,21.8-48.1,48.1
			C167.6,78.6,173,90,182,98c-2.4,1-3.9,3.3-4,5.9v0.1c0.1,2.9,2.1,5.4,4.9,6.2l3.1,36.1c0,18.8,12.3,34,31.1,34l0,0
			c18.8,0,31-15.4,31-34.2l3-36.1h0.8c3.2,0.1,5.9-2.4,6-5.6c0-0.1,0-0.3,0-0.4v-0.1C259,100.5,255.8,97.8,252.6,97.5z"/>
	</defs>
	<clipPath id="SVGID_8_">
		<use xlink:href="#SVGID_7_"  style="overflow:visible;"/>
	</clipPath>
	<g class="st9">
		
			<linearGradient id="SVGID_9_" gradientUnits="userSpaceOnUse" x1="186.9328" y1="43.1811" x2="194.5528" y2="22.8211" gradientTransform="matrix(1 0 0 -1 0 202)">
			<stop  offset="0" style="stop-color:#FFB192"/>
			<stop  offset="1" style="stop-color:#E5907F"/>
		</linearGradient>
		<circle class="st10" cx="196.2" cy="183.6" r="17.5"/>
		
			<linearGradient id="SVGID_10_" gradientUnits="userSpaceOnUse" x1="-256.0672" y1="43.181" x2="-248.4472" y2="22.8211" gradientTransform="matrix(-1 0 0 -1 -7.6 202)">
			<stop  offset="0" style="stop-color:#FFB192"/>
			<stop  offset="1" style="stop-color:#E5907F"/>
		</linearGradient>
		<circle class="st11" cx="239.2" cy="183.6" r="17.5"/>
	</g>
</g>
<path id="_Path_" class="st12" d="M209.1,180.9c-0.8-6.5-6.3-11.4-12.9-11.4l0,0c-6.6,0-12.1,4.9-12.9,11.4
	c-0.9,0.2-1.6,1.1-1.6,2.1c0,1.1,0.9,2,2,2.1h25.1c1.1,0,2-0.9,2-2.1C210.7,182,210,181.1,209.1,180.9z"/>
<g>
	<defs>
		<path id="SVGID_11_" d="M209.1,180.9c-0.8-6.5-6.3-11.4-12.9-11.4l0,0c-6.6,0-12.1,4.9-12.9,11.4c-0.9,0.2-1.6,1.1-1.6,2.1
			c0,1.1,0.9,2,2,2.1h25.1c1.1,0,2-0.9,2-2.1C210.7,182,210,181.1,209.1,180.9z"/>
	</defs>
	<clipPath id="SVGID_12_">
		<use xlink:href="#SVGID_11_"  style="overflow:visible;"/>
	</clipPath>
	<g class="st13">
		<rect x="180" y="181" class="st14" width="33" height="5"/>
	</g>
</g>
<path id="_Path_2" class="st12" d="M251.1,180.9c-0.8-6.5-6.3-11.4-12.9-11.4l0,0c-6.6,0-12.1,4.9-12.9,11.4
	c-0.9,0.2-1.6,1.1-1.6,2.1c0,1.1,0.9,2,2,2.1h25.1c1.1,0,2-0.9,2-2.1C252.8,182,252.1,181.1,251.1,180.9z"/>
<g>
	<defs>
		<path id="SVGID_13_" d="M251.1,180.9c-0.8-6.5-6.3-11.4-12.9-11.4l0,0c-6.6,0-12.1,4.9-12.9,11.4c-0.9,0.2-1.6,1.1-1.6,2.1
			c0,1.1,0.9,2,2,2.1h25.1c1.1,0,2-0.9,2-2.1C252.8,182,252.1,181.1,251.1,180.9z"/>
	</defs>
	<clipPath id="SVGID_14_">
		<use xlink:href="#SVGID_13_"  style="overflow:visible;"/>
	</clipPath>
	<g class="st15">
		<rect x="222" y="181" class="st14" width="36" height="5"/>
	</g>
</g>
<path class="st12" d="M191.6,79.8c0,0,8.2,9.9,26.8,9.9s26.8-9.9,26.8-9.9s3.4-4,3.4-18.1s-3.4-18.1-3.4-18.1s-8.6-6.9-26.8-6.9
	s-26.8,6.9-26.8,6.9s-3.4,5.5-3.4,18.1S191.6,79.8,191.6,79.8z"/>
<circle class="st16" cx="209.6" cy="63.2" r="2.5"/>
<circle class="st16" cx="228.4" cy="63.2" r="2.5"/>
<path id="_Path_3" class="st12" d="M259,104c0,3.9-3.1,7-7,7h-67c-3.9,0-7-3.1-7-7l0,0c0-3.9,3.1-7,7-7h67
	C255.9,97,259,100.1,259,104L259,104z"/>
<g>
	<defs>
		<path id="SVGID_15_" d="M259,104c0,3.9-3.1,7-7,7h-67c-3.9,0-7-3.1-7-7l0,0c0-3.9,3.1-7,7-7h67C255.9,97,259,100.1,259,104
			L259,104z"/>
	</defs>
	<clipPath id="SVGID_16_">
		<use xlink:href="#SVGID_15_"  style="overflow:visible;"/>
	</clipPath>
	<g class="st17">
		<rect x="172" y="104" class="st14" width="93" height="9"/>
	</g>
</g>
<path class="st18" d="M222.6,41.9c-0.4-0.5-0.3-1.2,0.2-1.6c0.3-0.2,0.6-0.3,0.9-0.2c4.7,0.9,13.8,2.9,17.5,5.1s3.7,8.3,3.4,11.2
	c-0.1,0.6-0.6,1.1-1.2,1c-0.1,0-0.2,0-0.4-0.1C239.4,55.7,229.6,50.8,222.6,41.9z"/>
<path class="st19" d="M211.7,84.3c0.9,0.5-0.1,2-1.1,1.8c-4.7-0.9-13.7-4.9-16.5-8.1c-2.6-2.9-4.7-16.3-4.4-19.2
	c0.1-0.6,0.6-1.1,1.2-1c0.1,0,0.2,0,0.4,0.1C194.8,59.5,196.6,76.1,211.7,84.3z"/>
<path class="st16" d="M219.2,72L219.2,72c-2.7,0-5-2-5.4-4.7c-0.1-0.4,0.2-0.7,0.5-0.7c0,0,0.1,0,0.1,0h9.5c0.4,0,0.6,0.3,0.6,0.7
	c0,0,0,0.1,0,0.1C224.2,70,221.9,72,219.2,72z"/>
<path class="st20" d="M28.9,59h8.2c1.1,0,1.9,0.9,1.9,1.9v0.2c0,1.1-0.9,1.9-1.9,1.9h-8.2c-1.1,0-1.9-0.9-1.9-1.9v-0.2
	C27,59.9,27.9,59,28.9,59z"/>
<path class="st20" d="M33,55L33,55c1.1,0,2,0.9,2,2v8c0,1.1-0.9,2-2,2l0,0c-1.1,0-2-0.9-2-2v-8C31,55.9,31.9,55,33,55z"/>
<path class="st21" d="M98.4,31h5.3c0.7,0,1.3,0.6,1.3,1.3v0c0,0.7-0.6,1.3-1.3,1.3h-5.3c-0.7,0-1.3-0.6-1.3-1.3v0
	C97.1,31.6,97.7,31,98.4,31z"/>
<path class="st21" d="M102.4,29.6v5.5c0,0.7-0.6,1.3-1.3,1.3H101c-0.7,0-1.3-0.6-1.3-1.3v-5.5c0-0.7,0.6-1.3,1.3-1.3h0.2
	C101.9,28.3,102.4,28.9,102.4,29.6z"/>
<circle class="st22" cx="26.8" cy="88.2" r="4"/>
<circle class="st23" cx="35.6" cy="37.3" r="2.5"/>
<path class="st24" d="M64.8,29.1l-0.3-0.5c-1.2-2.4-3.2-4.3-5.6-5.4l0,0l0.5-0.3c2.3-1.2,4.2-3.1,5.3-5.4l0.1-0.2l0,0
	c1.1,2.4,2.9,4.3,5.2,5.5l0.7,0.4l-0.3,0.1C67.9,24.6,66,26.6,64.8,29.1L64.8,29.1L64.8,29.1z"/>
<path class="st25" d="M47,103.6l-0.2-0.3c-0.7-1.4-1.9-2.5-3.3-3.2l0,0l0.3-0.2c1.4-0.7,2.5-1.8,3.1-3.2l0.1-0.1l0,0
	c0.6,1.4,1.7,2.6,3.1,3.3l0.4,0.2l-0.2,0.1C48.9,101,47.7,102.2,47,103.6L47,103.6z"/>
</svg>
