<?xml version="1.0" encoding="utf-8"?>
<!-- Generator: Adobe Illustrator 19.2.0, SVG Export Plug-In . SVG Version: 6.00 Build 0)  -->
<svg version="1.1" id="Layer_1" xmlns="http://www.w3.org/2000/svg" xmlns:xlink="http://www.w3.org/1999/xlink" x="0px" y="0px"
	 width="300px" height="200px" viewBox="0 0 300 200" style="enable-background:new 0 0 300 200;" xml:space="preserve">
<style type="text/css">
	.st0{fill:#A7A0FF;}
	.st1{clip-path:url(#SVGID_2_);}
	.st2{fill:#9290E0;}
	.st3{fill:#676787;}
	.st4{clip-path:url(#SVGID_4_);}
	.st5{fill:#4B4B66;}
	.st6{fill:#FFFFFF;}
	.st7{clip-path:url(#SVGID_6_);}
	.st8{fill:#565352;}
	.st9{fill:#FFE3DC;}
	.st10{fill:#FAE2A1;}
	.st11{fill:#F6D17F;}
	.st12{fill:#EEC161;}
	.st13{fill:#FFAE91;}
	.st14{fill:#E567A6;}
	.st15{fill:#CE5296;}
	.st16{fill:#EEF5FF;}
	.st17{fill:url(#SVGID_7_);}
</style>
<title>gd-pen</title>
<path id="_Clipping_Path_3" class="st0" d="M78.8,122.6c3.8-1.2,7.7-1.7,11.7-1.7c6.1,0,38,10.2,37,14.8s-24.8,3.5-40.8-2.7
	c-3-1.5-5.6-3.7-7.5-6.5C76.2,121.9,78.8,122.6,78.8,122.6z"/>
<g>
	<defs>
		<path id="SVGID_1_" d="M78.8,122.6c3.8-1.2,7.7-1.7,11.7-1.7c6.1,0,38,10.2,37,14.8s-24.8,3.5-40.8-2.7c-3-1.5-5.6-3.7-7.5-6.5
			C76.2,121.9,78.8,122.6,78.8,122.6z"/>
	</defs>
	<clipPath id="SVGID_2_">
		<use xlink:href="#SVGID_1_"  style="overflow:visible;"/>
	</clipPath>
	<g class="st1">
		
			<rect x="102.4" y="83" transform="matrix(0.2345 -0.9721 0.9721 0.2345 -30.4134 203.3263)" class="st2" width="22.9" height="76"/>
	</g>
</g>
<path id="_Path_" class="st3" d="M59.8,114.9c3.6,1.7,7.8,1.7,11.5,0.2c3-1.3,16.1,0.1,13.9,10.5c-2,9.3-13.5,7.5-16.3,5.4
	C65.2,128.2,58.9,120.8,59.8,114.9z"/>
<g>
	<defs>
		<path id="SVGID_3_" d="M59.8,114.9c3.6,1.7,7.8,1.7,11.5,0.2c3-1.3,16.1,0.1,13.9,10.5c-2,9.3-13.5,7.5-16.3,5.4
			C65.2,128.2,58.9,120.8,59.8,114.9z"/>
	</defs>
	<clipPath id="SVGID_4_">
		<use xlink:href="#SVGID_3_"  style="overflow:visible;"/>
	</clipPath>
	<g class="st4">
		<path class="st5" d="M58,126.2c0,0,6-5.7,12.4-6.5c3.6-0.3,6.6-2.8,7.7-6.2l-21.9-6.8L58,126.2z"/>
	</g>
</g>
<path id="_Clipping_Path_4" class="st6" d="M132.4,58.1L123.6,70l-12.4-4.4c0,0-1.3-3.1-0.3-11.8c0.4-3.7,1.3-7.3,2.6-10.8
	c0.5-1.1,1.7-1.7,2.9-1.2c0.1,0.1,0.3,0.1,0.4,0.2c3,2.1,5.9,4.4,8.6,6.9C131.2,54.1,132.4,58.1,132.4,58.1z"/>
<g>
	<defs>
		<path id="SVGID_5_" d="M132.4,58.1L123.6,70l-12.4-4.4c0,0-1.3-3.1-0.3-11.8c0.4-3.7,1.3-7.3,2.6-10.8c0.5-1.1,1.7-1.7,2.9-1.2
			c0.1,0.1,0.3,0.1,0.4,0.2c3,2.1,5.9,4.4,8.6,6.9C131.2,54.1,132.4,58.1,132.4,58.1z"/>
	</defs>
	<clipPath id="SVGID_6_">
		<use xlink:href="#SVGID_5_"  style="overflow:visible;"/>
	</clipPath>
	<g class="st7">
		<rect x="109.8" y="37.7" transform="matrix(0.9395 -0.3427 0.3427 0.9395 -7.3635 42.736)" class="st8" width="14.9" height="9"/>
	</g>
</g>
<path id="_Path_2" class="st9" d="M150.6,126.5l-11.9,4.1c-2.6,0.9-5.5-0.5-6.4-3.1L111,65l4.8,1.4l2.2-3.8l4.7,1.6l2.6-4.1l4.4,1.4
	l2.6-3.8l21.3,62.5c1,2.5-0.3,5.3-2.8,6.2C150.7,126.5,150.7,126.5,150.6,126.5z"/>
<polygon class="st10" points="110.9,64.7 115.1,65.6 117.6,62.4 138.3,123 131,125.5 "/>
<polygon class="st11" points="117.6,62.4 122.2,63.2 124.9,60 145.6,120.5 138.3,123 "/>
<polygon class="st12" points="124.9,60 129.6,60.7 132.2,57.5 152.9,118 145.6,120.5 "/>
<path class="st13" d="M129.7,128.3c0,0-11.1,12.7,13.2,30.7l1.3-2.2c5.4,5,12,8.6,19.1,10.5c-0.3-4-2.7-14.8-7.7-20.5
	c2.5-0.7,2.9-1.1,2.9-1.1S148.2,119.9,129.7,128.3z"/>
<path class="st9" d="M134.1,133.9c0,0-5.6,6.4,6.6,15.4l0.7-1.1c2.7,2.5,6,4.3,9.6,5.3c-0.1-2-1.4-7.4-3.9-10.3l1.5-0.5
	C148.6,142.7,143.4,129.7,134.1,133.9z"/>
<path class="st14" d="M128.7,141.5c0,0,1.3,5.7-1.6,20.9c-5.1-4.6-16.2-15.6-18.6-19.6c-2.6-3.9-3-8.7-1.3-13
	C109,125.5,130.4,130.6,128.7,141.5z"/>
<path class="st14" d="M143,129.3c0,0,5.5,2.2,20.9,1.5c-3.8-5.7-13-18.3-16.6-21.3s-8.1-4.4-12.6-3.2S132,129.3,143,129.3z"/>
<path class="st14" d="M57.8,88.4l0.3-5.4c0.8-13-1.7-25.9-7.2-37.7l-3.7-7.9l2.3-2l49.3,57.1l-11.6,10l-1.3-1
	c-7.1-5.6-15.3-9.7-24.1-12L57.8,88.4z"/>
<path class="st15" d="M100.8,51.4l-5.4-0.5c-13-1.1-25.4-5.5-36.3-12.6l-7.2-4.8l-2.3,2l49.3,57.1l11.6-10l-0.8-1.4
	c-4.5-7.9-7.3-16.6-8.4-25.6L100.8,51.4z"/>
<path class="st16" d="M76.6,64.5L50.1,33.8l-2.3,2l26.4,30.7c-1.9,2.8-1.3,6.6,1.5,8.5c2.8,1.9,6.6,1.3,8.5-1.5
	c1.6-2.3,1.4-5.4-0.4-7.5C82,63.9,79.1,63.2,76.6,64.5z"/>
<linearGradient id="SVGID_7_" gradientUnits="userSpaceOnUse" x1="87.1" y1="90.247" x2="143.0559" y2="90.247" gradientTransform="matrix(1 0 0 -1 0 202)">
	<stop  offset="0" style="stop-color:#EFC2E9"/>
	<stop  offset="1" style="stop-color:#EFAEE9"/>
</linearGradient>
<path class="st17" d="M136.6,136.5L136.6,136.5c-7.8,6.7-19.5,5.8-26.2-2c-0.3-0.3-0.5-0.6-0.8-0.9l-22.5-30.9l23.4-20.2l27.2,26.8
	c7.2,7.3,7.1,19.2-0.2,26.4C137.2,136,136.9,136.2,136.6,136.5z"/>
<path class="st14" d="M146.7,148.2l-18.4-16c-2.8-2.4-5-5.3-6.5-8.7c-1-2.2-1.6-4.3-0.7-5.1s2.9,0.1,4.9,1.4c3,2,5.6,4.6,7.6,7.7
	L146.7,148.2z"/>
</svg>
