<svg id="Layer_1" data-name="Layer 1" xmlns="http://www.w3.org/2000/svg" xmlns:xlink="http://www.w3.org/1999/xlink" width="32" height="32" viewBox="0 0 32 32"><defs><style>.cls-1{fill:url(#radial-gradient);}.cls-2{fill:#fff;}</style><radialGradient id="radial-gradient" cx="1.39" cy="17.58" r="46.27" gradientTransform="matrix(0.05, -1, -0.85, -0.04, 15.43, 31.24)" gradientUnits="userSpaceOnUse"><stop offset="0" stop-color="#fed576"/><stop offset="0.26" stop-color="#f47133"/><stop offset="0.61" stop-color="#bc3081"/><stop offset="1" stop-color="#4c63d2"/></radialGradient></defs><title>instagram-logo</title><g id="Background"><path class="cls-1" d="M0,15.59v0.87A16.19,16.19,0,0,0,14.82,32h2.44A16.14,16.14,0,0,0,32,16.45V15.59A16.12,16.12,0,0,0,16.84,0,16.18,16.18,0,0,0,0,15.59Z"/></g><g id="Symbol"><path class="cls-2" d="M16,8c2.55,0,2.85,0,3.86.05a5.26,5.26,0,0,1,1.77.33,2.93,2.93,0,0,1,1.1.72,3.07,3.07,0,0,1,.72,1.12,5.67,5.67,0,0,1,.33,1.8c0,1,.05,1.33.05,3.93s0,2.9-.05,3.93a5.3,5.3,0,0,1-.33,1.8,3,3,0,0,1-.72,1.12,2.93,2.93,0,0,1-1.1.72,5.13,5.13,0,0,1-1.77.33c-1,0-1.31.05-3.86,0.05s-2.85,0-3.86-.05a5.26,5.26,0,0,1-1.77-.33,2.93,2.93,0,0,1-1.1-.72,3.07,3.07,0,0,1-.72-1.12,5.67,5.67,0,0,1-.33-1.8c0-1-.05-1.33-0.05-3.93s0-2.9.05-3.93a5.3,5.3,0,0,1,.33-1.8,3,3,0,0,1,.72-1.12,2.93,2.93,0,0,1,1.1-.72,5.13,5.13,0,0,1,1.77-.33c1,0,1.31-.05,3.86-0.05m0-1.75c-2.6,0-2.92,0-3.93.06a6.85,6.85,0,0,0-2.32.45A4.65,4.65,0,0,0,8.06,7.92,4.71,4.71,0,0,0,7,9.65,7.23,7.23,0,0,0,6.51,12c0,1-.05,1.37-0.05,4s0,3,.05,4A7.27,7.27,0,0,0,7,22.37a4.77,4.77,0,0,0,1.1,1.72,4.71,4.71,0,0,0,1.69,1.12,6.85,6.85,0,0,0,2.32.45c1,0,1.35.06,3.93,0.06s2.92,0,3.93-.06a6.85,6.85,0,0,0,2.32-.45,4.65,4.65,0,0,0,1.69-1.12A4.71,4.71,0,0,0,25,22.37,7.23,7.23,0,0,0,25.49,20c0-1,.05-1.37.05-4s0-3-.05-4A7.27,7.27,0,0,0,25,9.65a4.77,4.77,0,0,0-1.1-1.72A4.71,4.71,0,0,0,22.25,6.8a6.85,6.85,0,0,0-2.32-.45c-1,0-1.35-.06-3.93-0.06h0Z"/><path class="cls-2" d="M16,11a5,5,0,1,0,4.9,5A4.94,4.94,0,0,0,16,11Zm0,8.23A3.24,3.24,0,1,1,19.18,16,3.21,3.21,0,0,1,16,19.24Z"/><ellipse class="cls-2" cx="21.1" cy="10.82" rx="1.14" ry="1.16"/></g></svg>