<?xml version="1.0" encoding="utf-8"?>
<!-- Generator: Adobe Illustrator 19.2.0, SVG Export Plug-In . SVG Version: 6.00 Build 0)  -->
<svg version="1.1" id="Layer_1" xmlns="http://www.w3.org/2000/svg" xmlns:xlink="http://www.w3.org/1999/xlink" x="0px" y="0px"
	 width="60px" height="45px" viewBox="0 0 60 45" style="enable-background:new 0 0 60 45;" xml:space="preserve">
<style type="text/css">
	.st0{display:none;}
	.st1{display:inline;fill:#E5E5E5;}
	.st2{fill:none;stroke:#68858C;stroke-width:2;stroke-miterlimit:10;}
	.st3{fill:none;stroke:#2CC9DC;stroke-width:2;stroke-linecap:round;stroke-miterlimit:10;}
	.st4{fill:none;stroke:#2CC9DC;stroke-width:2;stroke-miterlimit:10;}
	.st5{fill:none;stroke:#2CC9DC;stroke-width:2;stroke-linecap:round;stroke-linejoin:round;stroke-miterlimit:10;}
	.st6{fill:none;stroke:#68858C;stroke-miterlimit:10;}
</style>
<g id="Layer_1_1_" class="st0">
	<rect x="5" y="5" class="st1" width="50" height="35"/>
</g>
<g id="Layer_2">
	<line class="st2" x1="45" y1="11" x2="45" y2="21"/>
	<line class="st2" x1="42" y1="11" x2="42" y2="21"/>
	<line class="st2" x1="39" y1="11" x2="39" y2="21"/>
	<path class="st3" d="M16,11.4l2,1.9l-1,1.4c-0.6,0.8-0.5,1.8,0.1,2.5l0.9,1l-2,2.3"/>
	<line class="st4" x1="10" y1="14" x2="10" y2="18"/>
	<path class="st5" d="M48,21H16l-9-5l9-5h32c2.8,0,5,2.2,5,5l0,0C53,18.8,50.8,21,48,21z"/>
	<line class="st6" x1="48.5" y1="26" x2="48.5" y2="33"/>
	<line class="st6" x1="46.5" y1="26" x2="46.5" y2="31"/>
	<line class="st6" x1="44.5" y1="26" x2="44.5" y2="31"/>
	<line class="st6" x1="42.5" y1="26" x2="42.5" y2="31"/>
	<line class="st6" x1="40.5" y1="26" x2="40.5" y2="33"/>
	<line class="st6" x1="38.5" y1="26" x2="38.5" y2="31"/>
	<line class="st6" x1="36.5" y1="26" x2="36.5" y2="31"/>
	<line class="st6" x1="34.5" y1="26" x2="34.5" y2="31"/>
	<line class="st6" x1="32.5" y1="26" x2="32.5" y2="33"/>
	<line class="st6" x1="30.5" y1="26" x2="30.5" y2="31"/>
	<line class="st6" x1="28.5" y1="26" x2="28.5" y2="31"/>
	<line class="st6" x1="26.5" y1="26" x2="26.5" y2="31"/>
	<line class="st6" x1="24.5" y1="26" x2="24.5" y2="33"/>
	<line class="st6" x1="22.5" y1="26" x2="22.5" y2="31"/>
	<line class="st6" x1="20.5" y1="26" x2="20.5" y2="31"/>
	<line class="st6" x1="18.5" y1="26" x2="18.5" y2="31"/>
	<line class="st6" x1="16.5" y1="26" x2="16.5" y2="33"/>
	<line class="st6" x1="14.5" y1="26" x2="14.5" y2="31"/>
	<line class="st6" x1="12.5" y1="26" x2="12.5" y2="31"/>
	<line class="st6" x1="10.5" y1="26" x2="10.5" y2="31"/>
	<rect x="7" y="26" class="st4" width="46" height="10"/>
</g>
</svg>
