<?xml version="1.0" encoding="utf-8"?>
<!-- Generator: Adobe Illustrator 19.2.0, SVG Export Plug-In . SVG Version: 6.00 Build 0)  -->
<svg version="1.1" id="Layer_1" xmlns="http://www.w3.org/2000/svg" xmlns:xlink="http://www.w3.org/1999/xlink" x="0px" y="0px"
	 width="60px" height="45px" viewBox="0 0 60 45" style="enable-background:new 0 0 60 45;" xml:space="preserve">
<style type="text/css">
	.st0{display:none;}
	.st1{display:inline;fill:#E5E5E5;}
	.st2{fill:#2CC9DC;}
	.st3{fill:none;stroke:#68858C;stroke-width:2;stroke-miterlimit:10;}
	.st4{fill:#68858C;}
</style>
<g id="Layer_1_1_" class="st0">
	<rect x="5" y="5" class="st1" width="50" height="35"/>
</g>
<g id="Layer_2">
	<g>
		<path class="st2" d="M53,7v31H7V7H53 M55,5H5v35h50V5L55,5z"/>
	</g>
	<circle class="st3" cx="17" cy="21.6" r="5.5"/>
	<ellipse transform="matrix(0.3624 -0.932 0.932 0.3624 1.4433 25.5742)" class="st4" cx="19.4" cy="11.7" rx="2" ry="2"/>
	<line class="st3" x1="17.8" y1="15.8" x2="19.3" y2="12.1"/>
	<path class="st3" d="M20.7,33.2c0,0,0.1-5.2-4.3-5.2h0.4c-4.4,0-4.3,5.1-4.3,5.1"/>
	<line class="st3" x1="28" y1="13" x2="39" y2="13"/>
	<line class="st3" x1="28" y1="17" x2="39" y2="17"/>
	<line class="st3" x1="28" y1="23" x2="48" y2="23"/>
	<line class="st3" x1="28" y1="27" x2="48" y2="27"/>
	<line class="st3" x1="28" y1="31" x2="43" y2="31"/>
</g>
</svg>
