<?xml version="1.0" encoding="utf-8"?>
<!-- Generator: Adobe Illustrator 19.2.0, SVG Export Plug-In . SVG Version: 6.00 Build 0)  -->
<svg version="1.1" id="Layer_2" xmlns="http://www.w3.org/2000/svg" xmlns:xlink="http://www.w3.org/1999/xlink" x="0px" y="0px"
	 width="60px" height="45px" viewBox="0 0 60 45" style="enable-background:new 0 0 60 45;" xml:space="preserve">
<style type="text/css">
	.st0{fill:#2CC9DC;}
	.st1{fill:none;stroke:#68858C;stroke-width:2;stroke-miterlimit:10;}
	.st2{fill:#68858C;}
</style>
<title>miniicon-landing</title>
<path class="st0" d="M53,7v31H7V7H53 M55,5H5v35h50V5L55,5z"/>
<rect x="6" y="11" class="st0" width="48" height="2"/>
<ellipse class="st1" cx="30" cy="25.2" rx="11.5" ry="3.4"/>
<ellipse class="st2" cx="30" cy="25.2" rx="4.2" ry="1.3"/>
<path class="st1" d="M25.1,22.2c0-2.7,2.2-4.9,4.9-4.9s4.9,2.2,4.9,4.9"/>
<polyline class="st1" points="26.8,34.2 30,36 33.2,34.1 "/>
<line class="st1" x1="30" y1="35" x2="30" y2="32"/>
<line class="st1" x1="27.8" y1="25.5" x2="22.6" y2="34.1"/>
<line class="st1" x1="32.3" y1="25.5" x2="37.5" y2="34.1"/>
<circle class="st0" cx="11.5" cy="9.1" r="1"/>
<circle class="st0" cx="14.5" cy="9.1" r="1"/>
<circle class="st0" cx="17.5" cy="9.1" r="1"/>
</svg>
