<?xml version="1.0" encoding="utf-8"?>
<!-- Generator: Adobe Illustrator 19.2.0, SVG Export Plug-In . SVG Version: 6.00 Build 0)  -->
<svg version="1.1" id="Layer_1" xmlns="http://www.w3.org/2000/svg" xmlns:xlink="http://www.w3.org/1999/xlink" x="0px" y="0px"
	 width="60px" height="45px" viewBox="0 0 60 45" style="enable-background:new 0 0 60 45;" xml:space="preserve">
<style type="text/css">
	.st0{display:none;}
	.st1{display:inline;fill:#E5E5E5;}
	.st2{fill:none;stroke:#2CC9DC;stroke-width:2;stroke-miterlimit:10;}
	.st3{fill:none;stroke:#68858C;stroke-width:2;stroke-miterlimit:10;}
	.st4{fill:#68858C;}
</style>
<g id="Layer_1_1_" class="st0">
	<rect x="5" y="5" class="st1" width="50" height="35"/>
</g>
<g id="Layer_2">
	<path class="st2" d="M23.2,25.3c0,0-4.7,8.9-5.2,9.6c3.1,2.1,2.9,6.1,2.9,6.1h4.7c0,0-0.3-4.1,2.9-6.1
		C27.9,34.3,23.2,25.3,23.2,25.3z"/>
	<line class="st2" x1="23.2" y1="26.2" x2="23.2" y2="32.9"/>
	<rect x="7" y="3" class="st3" width="4" height="4"/>
	<rect x="35" y="3" class="st3" width="4" height="4"/>
	<rect x="21" y="17" class="st3" width="4" height="4"/>
	<circle class="st4" cx="9.8" cy="19.2" r="1.7"/>
	<circle class="st4" cx="36.3" cy="19.2" r="1.7"/>
	<line class="st3" x1="10" y1="19" x2="21" y2="19"/>
	<line class="st3" x1="25" y1="19" x2="36" y2="19"/>
	<path class="st3" d="M20.5,18.2C14.4,17.1,9.6,13.1,8.9,7"/>
	<path class="st3" d="M37.1,7c-0.7,6.2-5.4,10.1-11.4,11.3"/>
</g>
</svg>
