<?xml version="1.0" encoding="utf-8"?>
<!-- Generator: Adobe Illustrator 19.2.0, SVG Export Plug-In . SVG Version: 6.00 Build 0)  -->
<svg version="1.1" id="Layer_1" xmlns="http://www.w3.org/2000/svg" xmlns:xlink="http://www.w3.org/1999/xlink" x="0px" y="0px"
	 width="300px" height="200px" viewBox="0 0 300 200" style="enable-background:new 0 0 300 200;" xml:space="preserve">
<style type="text/css">
	.st0{clip-path:url(#SVGID_2_);}
	.st1{fill:#EEF5FF;}
	.st2{fill:#D2D3D5;}
	.st3{clip-path:url(#SVGID_4_);}
	.st4{fill:#BCBCBC;}
	.st5{clip-path:url(#SVGID_6_);}
	.st6{fill:#393939;}
	.st7{clip-path:url(#SVGID_8_);}
	.st8{clip-path:url(#SVGID_10_);}
	.st9{fill:#898989;}
	.st10{clip-path:url(#SVGID_12_);}
	.st11{fill:#EFF0F5;}
	.st12{fill:#FCCC7A;}
	.st13{clip-path:url(#SVGID_14_);}
	.st14{fill:#F9B041;}
	.st15{clip-path:url(#SVGID_16_);}
	.st16{fill:#FFFFFF;}
	.st17{fill:#FFDA77;}
	.st18{fill:none;stroke:#A79FFF;stroke-width:3;stroke-miterlimit:10;}
	.st19{fill:#40E088;}
	.st20{fill:#E467A6;}
	.st21{fill:#72EDFC;}
</style>
<title>wd-imac</title>
<g>
	<defs>
		<rect id="SVGID_1_" width="300" height="200"/>
	</defs>
	<clipPath id="SVGID_2_">
		<use xlink:href="#SVGID_1_"  style="overflow:visible;"/>
	</clipPath>
	<g class="st0">
		<path class="st1" d="M296.1,100L296.1,100c0-11-9-20-20-20h-52c-11,0-20-9-20-20s9-20,20-20h8c11,0,20-9,20-20s-9-20-20-20h-188
			c-11,0-20,9-20,20s9,20,20,20h6c11,0,20,9,20,20s-9,20-20,20h-5c-11,0-20,9-20,20s9,20,20,20h15c11,0,20,9,20,20s-9,20-20,20h-29
			c-11,0-20,9-20,20s9,20,20,20h199c11,0.8,20.6-7.5,21.4-18.5c0.8-11-7.5-20.6-18.5-21.4c-0.9-0.1-1.9-0.1-2.8,0c-11,0-21-9-21-20
			c0.1-11,9-19.9,20-20h47c11,0,20-9,20-20"/>
		<path class="st2" d="M127.2,175.4c-1.1-0.6-3.7-0.4-5.3-1.5s-1.7-13.8-1.7-13.8H88.2c0,0-0.2,12.7-1.8,13.9s-4.2,0.9-5.3,1.6
			S80.6,177,83,177h42.4C127.8,177,128.3,176,127.2,175.4"/>
	</g>
</g>
<g>
	<defs>
		<path id="SVGID_3_" d="M88.2,160c0,0-0.2,12.7-1.8,13.9s-4.2,0.9-5.3,1.6S80.6,177,83,177h42.4c2.4,0,2.8-1,1.8-1.6
			s-3.7-0.4-5.3-1.6s-1.8-13.8-1.8-13.8H88.2z"/>
	</defs>
	<clipPath id="SVGID_4_">
		<use xlink:href="#SVGID_3_"  style="overflow:visible;"/>
	</clipPath>
	<g class="st3">
		<rect x="87" y="158" class="st4" width="36" height="5"/>
	</g>
</g>
<g>
	<defs>
		<rect id="SVGID_5_" width="300" height="200"/>
	</defs>
	<clipPath id="SVGID_6_">
		<use xlink:href="#SVGID_5_"  style="overflow:visible;"/>
	</clipPath>
	<g class="st5">
		<path class="st2" d="M38.8,63h130.4c2.7,0,4.8,2.2,4.8,4.8v88.4c0,2.7-2.2,4.8-4.8,4.8H38.8c-2.7,0-4.8-2.2-4.8-4.8V67.8
			C34,65.2,36.2,63,38.8,63z"/>
		<path class="st6" d="M174,149H34V68.1c0.2-2.9,2.6-5.2,5.5-5.1h129.7c2.9,0,4.8,2.2,4.8,5.1V149z"/>
	</g>
</g>
<g>
	<defs>
		<path id="SVGID_7_" d="M39.5,63c-2.9-0.1-5.4,2.2-5.5,5.1V149h140V68.1c0-2.9-1.9-5.1-4.8-5.1H39.5z"/>
	</defs>
	<clipPath id="SVGID_8_">
		<use xlink:href="#SVGID_7_"  style="overflow:visible;"/>
	</clipPath>
	<g class="st7">
		<path class="st6" d="M38.7,63h130.6c2.6,0,4.7,2.1,4.7,4.7v89.6c0,2.6-2.1,4.7-4.7,4.7H38.7c-2.6,0-4.7-2.1-4.7-4.7V67.7
			C34,65.1,36.1,63,38.7,63z"/>
	</g>
</g>
<g>
	<defs>
		<path id="SVGID_9_" d="M88.2,160c0,0-0.2,12.7-1.8,13.9s-4.2,1.4-5.3,2.1S80.6,178,83,178h42.4c2.4,0,2.8-1.5,1.8-2.1
			s-3.7-0.6-5.3-1.8s-1.8-14.1-1.8-14.1H88.2z"/>
	</defs>
	<clipPath id="SVGID_10_">
		<use xlink:href="#SVGID_9_"  style="overflow:visible;"/>
	</clipPath>
	<g class="st8">
		<rect x="80" y="176" class="st9" width="51" height="1"/>
	</g>
</g>
<g>
	<defs>
		<rect id="SVGID_11_" width="300" height="200"/>
	</defs>
	<clipPath id="SVGID_12_">
		<use xlink:href="#SVGID_11_"  style="overflow:visible;"/>
	</clipPath>
	<g class="st10">
		<rect x="40" y="70" class="st11" width="129" height="72"/>
		<path d="M107.7,156.6c-0.1,0.2-0.2,0.5-0.4,0.7c-0.1,0.2-0.3,0.4-0.5,0.6c-0.2,0.2-0.4,0.3-0.6,0.3c-0.2,0-0.4-0.1-0.6-0.1
			c-0.2-0.1-0.4-0.1-0.6-0.1c-0.2,0-0.4,0.1-0.6,0.1c-0.2,0.1-0.4,0.1-0.6,0.1c-0.2,0-0.5-0.1-0.6-0.3c-0.2-0.2-0.4-0.4-0.5-0.6
			c-0.2-0.3-0.4-0.7-0.5-1.1c-0.1-0.4-0.2-0.8-0.2-1.3c0-0.4,0.1-0.8,0.3-1.2c0.2-0.3,0.4-0.5,0.6-0.6c0.3-0.2,0.6-0.2,0.9-0.2
			c0.2,0,0.5,0.1,0.7,0.1c0.2,0.1,0.3,0.1,0.5,0.1c0.2,0,0.4-0.1,0.6-0.2c0.3-0.1,0.5-0.1,0.8-0.1c0.5,0,1,0.3,1.3,0.7
			c-0.7,0.4-1,1.3-0.6,2.1c0.1,0.1,0.2,0.3,0.3,0.4c0.1,0.1,0.3,0.2,0.5,0.3L107.7,156.6z M106.4,151.3c0,0.4-0.1,0.7-0.4,1
			c-0.3,0.3-0.7,0.5-1.1,0.5c0,0,0-0.1,0-0.1c0-0.4,0.1-0.7,0.4-1c0.1-0.2,0.3-0.3,0.5-0.4c0.2-0.1,0.4-0.1,0.6-0.2
			C106.3,151.2,106.3,151.3,106.4,151.3L106.4,151.3z"/>
		<rect x="141" y="51" class="st12" width="20" height="91"/>
	</g>
</g>
<g>
	<defs>
		<rect id="SVGID_13_" x="141" y="51" width="20" height="91"/>
	</defs>
	<clipPath id="SVGID_14_">
		<use xlink:href="#SVGID_13_"  style="overflow:visible;"/>
	</clipPath>
	<g class="st13">
		<rect x="156" y="49" class="st14" width="9" height="100"/>
	</g>
</g>
<g>
	<defs>
		<rect id="SVGID_15_" width="300" height="200"/>
	</defs>
	<clipPath id="SVGID_16_">
		<use xlink:href="#SVGID_15_"  style="overflow:visible;"/>
	</clipPath>
	<g class="st15">
		<path class="st1" d="M153.2,59c0,1.4-1.1,2.5-2.5,2.5s-2.5-1.1-2.5-2.5s1.1-2.5,2.5-2.5S153.2,57.6,153.2,59"/>
		<rect x="141" y="66" class="st16" width="10" height="1"/>
		<rect x="141" y="72" class="st16" width="6" height="1"/>
		<rect x="141" y="78" class="st16" width="6" height="1"/>
		<rect x="141" y="84" class="st16" width="6" height="1"/>
		<rect x="141" y="90" class="st16" width="10" height="1"/>
		<rect x="141" y="96" class="st16" width="6" height="1"/>
		<rect x="141" y="102" class="st16" width="6" height="1"/>
		<rect x="141" y="108" class="st16" width="6" height="1"/>
		<rect x="141" y="114" class="st16" width="10" height="1"/>
		<rect x="141" y="120" class="st16" width="6" height="1"/>
		<rect x="141" y="126" class="st16" width="6" height="1"/>
		<rect x="141" y="132" class="st16" width="6" height="1"/>
		<rect x="141" y="138" class="st16" width="10" height="1"/>
	</g>
</g>
<path class="st17" d="M16.9,75h8.2c1.1,0,1.9,0.9,1.9,1.9v0.2c0,1.1-0.9,1.9-1.9,1.9h-8.2c-1.1,0-1.9-0.9-1.9-1.9v-0.2
	C15,75.9,15.9,75,16.9,75z"/>
<path class="st17" d="M21,71L21,71c1.1,0,2,0.9,2,2v8c0,1.1-0.9,2-2,2l0,0c-1.1,0-2-0.9-2-2v-8C19,71.9,19.9,71,21,71z"/>
<circle class="st18" cx="46.5" cy="40.7" r="4"/>
<circle class="st19" cx="24.6" cy="53.3" r="2.5"/>
<circle class="st20" cx="120.5" cy="18" r="3"/>
<path class="st21" d="M109.6,17.8l-0.3-0.5c-1.2-2.4-3.2-4.3-5.6-5.4l0,0l0.5-0.3c2.3-1.2,4.2-3.1,5.3-5.4l0.1-0.2l0,0
	c1.1,2.4,2.9,4.3,5.2,5.5l0.7,0.4l-0.3,0.1C112.8,13.3,110.8,15.3,109.6,17.8L109.6,17.8L109.6,17.8z"/>
</svg>
