<?xml version="1.0" encoding="utf-8"?>
<!-- Generator: Adobe Illustrator 19.2.0, SVG Export Plug-In . SVG Version: 6.00 Build 0)  -->
<svg version="1.1" id="Layer_1" xmlns="http://www.w3.org/2000/svg" xmlns:xlink="http://www.w3.org/1999/xlink" x="0px" y="0px"
	 width="300px" height="200px" viewBox="0 0 300 200" style="enable-background:new 0 0 300 200;" xml:space="preserve">
<style type="text/css">
	.st0{clip-path:url(#SVGID_2_);}
	.st1{fill:url(#SVGID_3_);}
	.st2{fill:#E5907F;}
	.st3{fill:#E8E8E8;}
	.st4{clip-path:url(#SVGID_5_);}
	.st5{fill:#FFF9FA;}
	.st6{clip-path:url(#SVGID_7_);}
	.st7{clip-path:url(#SVGID_9_);}
	.st8{clip-path:url(#SVGID_11_);}
	.st9{clip-path:url(#SVGID_13_);}
	.st10{clip-path:url(#SVGID_15_);}
	.st11{clip-path:url(#SVGID_17_);}
	.st12{clip-path:url(#SVGID_19_);}
	.st13{clip-path:url(#SVGID_21_);}
	.st14{clip-path:url(#SVGID_23_);}
	.st15{clip-path:url(#SVGID_25_);}
	.st16{clip-path:url(#SVGID_27_);}
	.st17{clip-path:url(#SVGID_29_);}
	.st18{clip-path:url(#SVGID_31_);}
	.st19{clip-path:url(#SVGID_33_);}
	.st20{clip-path:url(#SVGID_35_);}
	.st21{clip-path:url(#SVGID_37_);}
	.st22{clip-path:url(#SVGID_39_);}
	.st23{clip-path:url(#SVGID_41_);}
	.st24{clip-path:url(#SVGID_43_);}
	.st25{clip-path:url(#SVGID_45_);}
	.st26{clip-path:url(#SVGID_47_);}
	.st27{clip-path:url(#SVGID_49_);}
	.st28{clip-path:url(#SVGID_51_);}
	.st29{clip-path:url(#SVGID_53_);}
	.st30{clip-path:url(#SVGID_55_);}
	.st31{clip-path:url(#SVGID_57_);}
	.st32{clip-path:url(#SVGID_59_);}
	.st33{clip-path:url(#SVGID_61_);}
	.st34{clip-path:url(#SVGID_63_);}
	.st35{clip-path:url(#SVGID_65_);}
	.st36{clip-path:url(#SVGID_67_);}
	.st37{clip-path:url(#SVGID_69_);}
	.st38{clip-path:url(#SVGID_71_);}
	.st39{clip-path:url(#SVGID_73_);}
	.st40{clip-path:url(#SVGID_75_);}
	.st41{clip-path:url(#SVGID_77_);}
	.st42{clip-path:url(#SVGID_79_);}
	.st43{clip-path:url(#SVGID_81_);}
	.st44{clip-path:url(#SVGID_83_);}
	.st45{clip-path:url(#SVGID_85_);}
	.st46{clip-path:url(#SVGID_87_);}
	.st47{clip-path:url(#SVGID_89_);}
	.st48{clip-path:url(#SVGID_91_);}
	.st49{clip-path:url(#SVGID_93_);}
	.st50{clip-path:url(#SVGID_95_);}
	.st51{clip-path:url(#SVGID_97_);}
	.st52{clip-path:url(#SVGID_99_);}
	.st53{clip-path:url(#SVGID_101_);}
</style>
<title>wd-tentacle</title>
<g>
	<defs>
		<path id="SVGID_1_" d="M71.7,40.4c3.3,15.9,47.8,36,87.9,21.4c34.9-12.8,63.8,18.3,40.4,39.1c-15.6,14-54.9,48.2-43.2,99.1H232
			c3.5-0.1,7.9-2.1,8.7-2.9c-27-45.6,6.3-111.6-9.7-135.6c-15.2-22.8-54.6-29.2-80.3-16.6s-65.6,2.5-67.2-8.3
			c-1.4-9.3,24.3-8.7,31.1-5.8c8.3,3.6,11.5-3.4-7.1-7.4c-4.3-1-8.8-1.5-13.2-1.5C78.4,21.8,69.4,29.5,71.7,40.4"/>
	</defs>
	<clipPath id="SVGID_2_">
		<use xlink:href="#SVGID_1_"  style="overflow:visible;"/>
	</clipPath>
	<g class="st0">
		
			<linearGradient id="SVGID_3_" gradientUnits="userSpaceOnUse" x1="-247.5249" y1="200.2484" x2="-246.5249" y2="200.2484" gradientTransform="matrix(69.7228 174.4961 -174.4961 69.7228 52330.0391 29268.8828)">
			<stop  offset="0" style="stop-color:#FFB192"/>
			<stop  offset="1" style="stop-color:#E5907F"/>
		</linearGradient>
		<polygon class="st1" points="8,46.3 222.6,-39.4 308.4,175.4 93.9,261.2 		"/>
		<path class="st2" d="M229.3,207.8c-11.5-12-15.6-47.4-11.5-66.8c4-19,10-39,10.1-57.1c0.2-23.9-12.5-30.3-25.5-35.2
			c-18-6.8-33.1-7.2-46.3-1.5c-9,3.9-22.7,7-36.5,6.5c-19.7-0.6-39.7-7.6-39-19.3c0.4-6.3,17.9-11.5,37.1-5.8
			c2.6,0.8,2.6,4.4-0.1,4.1c-24.2-2.8-14.8,3.8-14.8,3.8l75.3-6l65,17.7l15.7,128.9C258.7,177.2,240.8,219.8,229.3,207.8"/>
		<path class="st3" d="M182.3,173.4c-1.8,5.7-7,9.1-11.6,7.7s-6.8-7.3-5-13s7-9.1,11.6-7.7S184.1,167.7,182.3,173.4"/>
	</g>
</g>
<g>
	<defs>
		<path id="SVGID_4_" d="M165.8,168.1c-1.8,5.7,0.4,11.5,5,13s9.8-2,11.6-7.7s-0.4-11.5-5-13c-0.7-0.2-1.4-0.3-2.2-0.3
			C171.2,160.1,167.3,163.3,165.8,168.1"/>
	</defs>
	<clipPath id="SVGID_5_">
		<use xlink:href="#SVGID_4_"  style="overflow:visible;"/>
	</clipPath>
	<g class="st4">
		<path class="st5" d="M181.7,169c-1.8,5.7-7,9.1-11.6,7.7s-6.8-7.3-5-13s7-9.1,11.6-7.7S183.5,163.3,181.7,169"/>
	</g>
</g>
<g>
	<defs>
		<path id="SVGID_6_" d="M71.7,40.4c3.3,15.9,47.8,36,87.9,21.4c34.9-12.8,63.8,18.3,40.4,39.1c-15.6,14-54.9,48.2-43.2,99.1H232
			c3.5-0.1,7.9-2.1,8.7-2.9c-27-45.6,6.3-111.6-9.7-135.6c-15.2-22.8-54.6-29.2-80.3-16.6s-65.6,2.5-67.2-8.3
			c-1.4-9.3,24.3-8.7,31.1-5.8c8.3,3.6,11.5-3.4-7.1-7.4c-4.3-1-8.8-1.5-13.2-1.5C78.4,21.8,69.4,29.5,71.7,40.4"/>
	</defs>
	<clipPath id="SVGID_7_">
		<use xlink:href="#SVGID_6_"  style="overflow:visible;"/>
	</clipPath>
	<g class="st6">
		<path class="st3" d="M210.2,161.9c-1.9,5.9-7.3,9.5-12,8s-7-7.5-5.1-13.4s7.3-9.5,12-8S212.1,155.9,210.2,161.9"/>
	</g>
</g>
<g>
	<defs>
		<path id="SVGID_8_" d="M193.1,156.4c-1.9,5.9,0.4,11.9,5.1,13.4s10.1-2.1,12-8s-0.4-11.9-5.1-13.4c-0.7-0.2-1.5-0.3-2.2-0.4
			C198.8,148,194.7,151.4,193.1,156.4"/>
	</defs>
	<clipPath id="SVGID_9_">
		<use xlink:href="#SVGID_8_"  style="overflow:visible;"/>
	</clipPath>
	<g class="st7">
		<path class="st5" d="M209.6,157.3c-1.9,5.9-7.3,9.5-12,8s-7-7.5-5.1-13.4s7.3-9.5,12-8S211.4,151.4,209.6,157.3"/>
	</g>
</g>
<g>
	<defs>
		<path id="SVGID_10_" d="M71.7,40.4c3.3,15.9,47.8,36,87.9,21.4c34.9-12.8,63.8,18.3,40.4,39.1c-15.6,14-54.9,48.2-43.2,99.1H232
			c3.5-0.1,7.9-2.1,8.7-2.9c-27-45.6,6.3-111.6-9.7-135.6c-15.2-22.8-54.6-29.2-80.3-16.6s-65.6,2.5-67.2-8.3
			c-1.4-9.3,24.3-8.7,31.1-5.8c8.3,3.6,11.5-3.4-7.1-7.4c-4.3-1-8.8-1.5-13.2-1.5C78.4,21.8,69.4,29.5,71.7,40.4"/>
	</defs>
	<clipPath id="SVGID_11_">
		<use xlink:href="#SVGID_10_"  style="overflow:visible;"/>
	</clipPath>
	<g class="st8">
		<path class="st3" d="M189.9,140.5c-1.6,5-6.1,8-10.1,6.7s-5.9-6.3-4.3-11.3s6.1-8,10.1-6.7S191.5,135.5,189.9,140.5"/>
	</g>
</g>
<g>
	<defs>
		<path id="SVGID_12_" d="M175.6,135.9c-1.6,5,0.4,10,4.3,11.3s8.5-1.7,10.1-6.7s-0.4-10-4.3-11.3c-0.6-0.2-1.2-0.3-1.9-0.3
			C180.3,128.9,176.9,131.7,175.6,135.9"/>
	</defs>
	<clipPath id="SVGID_13_">
		<use xlink:href="#SVGID_12_"  style="overflow:visible;"/>
	</clipPath>
	<g class="st9">
		<path class="st5" d="M189.4,136.7c-1.6,5-6.1,8-10.1,6.7s-5.9-6.3-4.3-11.3s6.1-8,10.1-6.7S191,131.7,189.4,136.7"/>
	</g>
</g>
<g>
	<defs>
		<path id="SVGID_14_" d="M71.7,40.4c3.3,15.9,47.8,36,87.9,21.4c34.9-12.8,63.8,18.3,40.4,39.1c-15.6,14-54.9,48.2-43.2,99.1H232
			c3.5-0.1,7.9-2.1,8.7-2.9c-27-45.6,6.3-111.6-9.7-135.6c-15.2-22.8-54.6-29.2-80.3-16.6s-65.6,2.5-67.2-8.3
			c-1.4-9.3,24.3-8.7,31.1-5.8c8.3,3.6,11.5-3.4-7.1-7.4c-4.3-1-8.8-1.5-13.2-1.5C78.4,21.8,69.4,29.5,71.7,40.4"/>
	</defs>
	<clipPath id="SVGID_15_">
		<use xlink:href="#SVGID_14_"  style="overflow:visible;"/>
	</clipPath>
	<g class="st10">
		<path class="st3" d="M215.1,133.7c-1.5,4.7-5.8,7.6-9.6,6.4s-5.6-6-4.1-10.8s5.8-7.6,9.6-6.4S216.6,128.9,215.1,133.7"/>
	</g>
</g>
<g>
	<defs>
		<path id="SVGID_16_" d="M201.4,129.3c-1.5,4.7,0.3,9.5,4.1,10.8s8.1-1.6,9.6-6.4s-0.3-9.5-4.1-10.8c-0.6-0.2-1.2-0.3-1.8-0.3
			C205.9,122.7,202.7,125.3,201.4,129.3"/>
	</defs>
	<clipPath id="SVGID_17_">
		<use xlink:href="#SVGID_16_"  style="overflow:visible;"/>
	</clipPath>
	<g class="st11">
		<path class="st5" d="M214.6,130.1c-1.5,4.7-5.8,7.6-9.6,6.4s-5.6-6-4.1-10.8s5.8-7.6,9.6-6.4S216.1,125.3,214.6,130.1"/>
	</g>
</g>
<g>
	<defs>
		<path id="SVGID_18_" d="M71.7,40.4c3.3,15.9,47.8,36,87.9,21.4c34.9-12.8,63.8,18.3,40.4,39.1c-15.6,14-54.9,48.2-43.2,99.1H232
			c3.5-0.1,7.9-2.1,8.7-2.9c-27-45.6,6.3-111.6-9.7-135.6c-15.2-22.8-54.6-29.2-80.3-16.6s-65.6,2.5-67.2-8.3
			c-1.4-9.3,24.3-8.7,31.1-5.8c8.3,3.6,11.5-3.4-7.1-7.4c-4.3-1-8.8-1.5-13.2-1.5C78.4,21.8,69.4,29.5,71.7,40.4"/>
	</defs>
	<clipPath id="SVGID_19_">
		<use xlink:href="#SVGID_18_"  style="overflow:visible;"/>
	</clipPath>
	<g class="st12">
		<path class="st3" d="M203.5,116.8c-1.8,3.4-5.5,5.1-8.2,3.6s-3.5-5.4-1.7-8.8s5.5-5.1,8.2-3.6S205.3,113.4,203.5,116.8"/>
	</g>
</g>
<g>
	<defs>
		<path id="SVGID_20_" d="M193.6,111.6c-1.8,3.4-1,7.4,1.7,8.8s6.4-0.2,8.2-3.6s1-7.4-1.7-8.8c-0.7-0.3-1.4-0.5-2.2-0.5
			C197,107.6,194.7,109.2,193.6,111.6"/>
	</defs>
	<clipPath id="SVGID_21_">
		<use xlink:href="#SVGID_20_"  style="overflow:visible;"/>
	</clipPath>
	<g class="st13">
		<path class="st5" d="M203.6,113.9c-1.8,3.4-5.5,5.1-8.2,3.6s-3.5-5.4-1.7-8.8s5.5-5.1,8.2-3.6S205.4,110.5,203.6,113.9"/>
	</g>
</g>
<g>
	<defs>
		<path id="SVGID_22_" d="M71.7,40.4c3.3,15.9,47.8,36,87.9,21.4c34.9-12.8,63.8,18.3,40.4,39.1c-15.6,14-54.9,48.2-43.2,99.1H232
			c3.5-0.1,7.9-2.1,8.7-2.9c-27-45.6,6.3-111.6-9.7-135.6c-15.2-22.8-54.6-29.2-80.3-16.6s-65.6,2.5-67.2-8.3
			c-1.4-9.3,24.3-8.7,31.1-5.8c8.3,3.6,11.5-3.4-7.1-7.4c-4.3-1-8.8-1.5-13.2-1.5C78.4,21.8,69.4,29.5,71.7,40.4"/>
	</defs>
	<clipPath id="SVGID_23_">
		<use xlink:href="#SVGID_22_"  style="overflow:visible;"/>
	</clipPath>
	<g class="st14">
		<path class="st3" d="M221.1,110.4c-1.8,3.4-5.4,5-8.2,3.6s-3.5-5.4-1.7-8.8s5.4-5,8.2-3.6S222.9,107,221.1,110.4"/>
	</g>
</g>
<g>
	<defs>
		<path id="SVGID_24_" d="M211.2,105.3c-1.8,3.4-1,7.3,1.7,8.8s6.4-0.2,8.2-3.6s1-7.3-1.7-8.8c-0.7-0.3-1.4-0.5-2.2-0.5
			C214.7,101.3,212.4,102.9,211.2,105.3"/>
	</defs>
	<clipPath id="SVGID_25_">
		<use xlink:href="#SVGID_24_"  style="overflow:visible;"/>
	</clipPath>
	<g class="st15">
		<path class="st5" d="M221.2,107.6c-1.8,3.4-5.4,5-8.2,3.6s-3.5-5.4-1.7-8.8s5.4-5,8.2-3.6S223,104.2,221.2,107.6"/>
	</g>
</g>
<g>
	<defs>
		<path id="SVGID_26_" d="M71.7,40.4c3.3,15.9,47.8,36,87.9,21.4c34.9-12.8,63.8,18.3,40.4,39.1c-15.6,14-54.9,48.2-43.2,99.1H232
			c3.5-0.1,7.9-2.1,8.7-2.9c-27-45.6,6.3-111.6-9.7-135.6c-15.2-22.8-54.6-29.2-80.3-16.6s-65.6,2.5-67.2-8.3
			c-1.4-9.3,24.3-8.7,31.1-5.8c8.3,3.6,11.5-3.4-7.1-7.4c-4.3-1-8.8-1.5-13.2-1.5C78.4,21.8,69.4,29.5,71.7,40.4"/>
	</defs>
	<clipPath id="SVGID_27_">
		<use xlink:href="#SVGID_26_"  style="overflow:visible;"/>
	</clipPath>
	<g class="st16">
		<path class="st3" d="M216.5,95.8c-1.4,2.6-4.1,3.8-6.2,2.7s-2.6-4-1.3-6.6s4.1-3.8,6.2-2.7S217.8,93.2,216.5,95.8"/>
	</g>
</g>
<g>
	<defs>
		<path id="SVGID_28_" d="M209,91.9c-1.4,2.6-0.8,5.5,1.3,6.6s4.8-0.1,6.2-2.7s0.8-5.5-1.3-6.6c-0.5-0.3-1.1-0.4-1.6-0.4
			C211.6,88.9,209.8,90.1,209,91.9"/>
	</defs>
	<clipPath id="SVGID_29_">
		<use xlink:href="#SVGID_28_"  style="overflow:visible;"/>
	</clipPath>
	<g class="st17">
		<path class="st5" d="M216.6,93.6c-1.4,2.6-4.1,3.8-6.2,2.7s-2.6-4-1.3-6.6s4.1-3.8,6.2-2.7S217.9,91,216.6,93.6"/>
	</g>
</g>
<g>
	<defs>
		<path id="SVGID_30_" d="M71.7,40.4c3.3,15.9,47.8,36,87.9,21.4c34.9-12.8,63.8,18.3,40.4,39.1c-15.6,14-54.9,48.2-43.2,99.1H232
			c3.5-0.1,7.9-2.1,8.7-2.9c-27-45.6,6.3-111.6-9.7-135.6c-15.2-22.8-54.6-29.2-80.3-16.6s-65.6,2.5-67.2-8.3
			c-1.4-9.3,24.3-8.7,31.1-5.8c8.3,3.6,11.5-3.4-7.1-7.4c-4.3-1-8.8-1.5-13.2-1.5C78.4,21.8,69.4,29.5,71.7,40.4"/>
	</defs>
	<clipPath id="SVGID_31_">
		<use xlink:href="#SVGID_30_"  style="overflow:visible;"/>
	</clipPath>
	<g class="st18">
		<path class="st3" d="M224.7,81.4c-0.1,2.6-1.9,4.6-3.9,4.5s-3.6-2.3-3.5-4.8s1.9-4.6,3.9-4.5S224.8,78.8,224.7,81.4"/>
	</g>
</g>
<g>
	<defs>
		<path id="SVGID_32_" d="M217.3,81c-0.1,2.6,1.4,4.7,3.5,4.8s3.8-1.9,3.9-4.5s-1.4-4.7-3.5-4.8h-0.1
			C219.1,76.5,217.4,78.5,217.3,81"/>
	</defs>
	<clipPath id="SVGID_33_">
		<use xlink:href="#SVGID_32_"  style="overflow:visible;"/>
	</clipPath>
	<g class="st19">
		<path class="st5" d="M224,79.7c-0.1,2.6-1.9,4.6-3.9,4.5s-3.6-2.3-3.5-4.8s1.9-4.6,3.9-4.5S224.1,77.1,224,79.7"/>
	</g>
</g>
<g>
	<defs>
		<path id="SVGID_34_" d="M71.7,40.4c3.3,15.9,47.8,36,87.9,21.4c34.9-12.8,63.8,18.3,40.4,39.1c-15.6,14-54.9,48.2-43.2,99.1H232
			c3.5-0.1,7.9-2.1,8.7-2.9c-27-45.6,6.3-111.6-9.7-135.6c-15.2-22.8-54.6-29.2-80.3-16.6s-65.6,2.5-67.2-8.3
			c-1.4-9.3,24.3-8.7,31.1-5.8c8.3,3.6,11.5-3.4-7.1-7.4c-4.3-1-8.8-1.5-13.2-1.5C78.4,21.8,69.4,29.5,71.7,40.4"/>
	</defs>
	<clipPath id="SVGID_35_">
		<use xlink:href="#SVGID_34_"  style="overflow:visible;"/>
	</clipPath>
	<g class="st20">
		<path class="st3" d="M215.8,70.9c0.7,2.5-0.4,4.9-2.4,5.5s-4.1-1-4.8-3.5s0.3-4.9,2.3-5.5S215.1,68.4,215.8,70.9"/>
	</g>
</g>
<g>
	<defs>
		<path id="SVGID_36_" d="M211,67.4c-2,0.5-3,3-2.4,5.5s2.8,4.1,4.8,3.5s3-3,2.4-5.5c-0.4-2-2-3.4-4-3.6
			C211.5,67.3,211.3,67.4,211,67.4"/>
	</defs>
	<clipPath id="SVGID_37_">
		<use xlink:href="#SVGID_36_"  style="overflow:visible;"/>
	</clipPath>
	<g class="st21">
		<path class="st5" d="M213.8,71.7c0.5,2.5-0.7,4.9-2.7,5.3s-4.1-1.3-4.6-3.8s0.7-4.9,2.7-5.3S213.3,69.1,213.8,71.7"/>
	</g>
</g>
<g>
	<defs>
		<path id="SVGID_38_" d="M71.7,40.4c3.3,15.9,47.8,36,87.9,21.4c34.9-12.8,63.8,18.3,40.4,39.1c-15.6,14-54.9,48.2-43.2,99.1H232
			c3.5-0.1,7.9-2.1,8.7-2.9c-27-45.6,6.3-111.6-9.7-135.6c-15.2-22.8-54.6-29.2-80.3-16.6s-65.6,2.5-67.2-8.3
			c-1.4-9.3,24.3-8.7,31.1-5.8c8.3,3.6,11.5-3.4-7.1-7.4c-4.3-1-8.8-1.5-13.2-1.5C78.4,21.8,69.4,29.5,71.7,40.4"/>
	</defs>
	<clipPath id="SVGID_39_">
		<use xlink:href="#SVGID_38_"  style="overflow:visible;"/>
	</clipPath>
	<g class="st22">
		<path class="st3" d="M213.7,57.2c2,1.2,2.9,3.4,2,5s-3.3,2-5.4,0.8s-2.9-3.4-2-5S211.7,56,213.7,57.2"/>
	</g>
</g>
<g>
	<defs>
		<path id="SVGID_40_" d="M208.4,58c-0.9,1.6-0.1,3.9,2,5c2.1,1.1,4.4,0.8,5.4-0.8s0.1-3.9-2-5c-0.7-0.4-1.6-0.7-2.5-0.7
			C210.1,56.5,209,57,208.4,58"/>
	</defs>
	<clipPath id="SVGID_41_">
		<use xlink:href="#SVGID_40_"  style="overflow:visible;"/>
	</clipPath>
	<g class="st23">
		<path class="st5" d="M212,57c2,1.2,2.9,3.4,2,5s-3.3,2-5.4,0.8s-2.9-3.4-2-5S210,55.8,212,57"/>
	</g>
</g>
<g>
	<defs>
		<path id="SVGID_42_" d="M71.7,40.4c3.3,15.9,47.8,36,87.9,21.4c34.9-12.8,63.8,18.3,40.4,39.1c-15.6,14-54.9,48.2-43.2,99.1H232
			c3.5-0.1,7.9-2.1,8.7-2.9c-27-45.6,6.3-111.6-9.7-135.6c-15.2-22.8-54.6-29.2-80.3-16.6s-65.6,2.5-67.2-8.3
			c-1.4-9.3,24.3-8.7,31.1-5.8c8.3,3.6,11.5-3.4-7.1-7.4c-4.3-1-8.8-1.5-13.2-1.5C78.4,21.8,69.4,29.5,71.7,40.4"/>
	</defs>
	<clipPath id="SVGID_43_">
		<use xlink:href="#SVGID_42_"  style="overflow:visible;"/>
	</clipPath>
	<g class="st24">
		<path class="st3" d="M200.4,55.4c2.2,0.9,3.4,3.1,2.7,4.8s-3.1,2.5-5.3,1.5s-3.4-3.1-2.7-4.8S198.2,54.5,200.4,55.4"/>
	</g>
</g>
<g>
	<defs>
		<path id="SVGID_44_" d="M195.1,57c-0.7,1.8,0.5,3.9,2.7,4.8s4.6,0.2,5.3-1.5s-0.5-3.9-2.7-4.8c-0.6-0.3-1.3-0.4-2-0.4
			C197,55,195.7,55.8,195.1,57"/>
	</defs>
	<clipPath id="SVGID_45_">
		<use xlink:href="#SVGID_44_"  style="overflow:visible;"/>
	</clipPath>
	<g class="st25">
		<path class="st5" d="M198.6,55.5c2.2,0.9,3.4,3.1,2.7,4.8s-3.1,2.5-5.3,1.5s-3.4-3.1-2.7-4.8S196.4,54.6,198.6,55.5"/>
	</g>
</g>
<g>
	<defs>
		<path id="SVGID_46_" d="M71.7,40.4c3.3,15.9,47.8,36,87.9,21.4c34.9-12.8,63.8,18.3,40.4,39.1c-15.6,14-54.9,48.2-43.2,99.1H232
			c3.5-0.1,7.9-2.1,8.7-2.9c-27-45.6,6.3-111.6-9.7-135.6c-15.2-22.8-54.6-29.2-80.3-16.6s-65.6,2.5-67.2-8.3
			c-1.4-9.3,24.3-8.7,31.1-5.8c8.3,3.6,11.5-3.4-7.1-7.4c-4.3-1-8.8-1.5-13.2-1.5C78.4,21.8,69.4,29.5,71.7,40.4"/>
	</defs>
	<clipPath id="SVGID_47_">
		<use xlink:href="#SVGID_46_"  style="overflow:visible;"/>
	</clipPath>
	<g class="st26">
		<path class="st3" d="M189.3,48.1c2.2-0.3,4.2,0.9,4.5,2.6s-1.3,3.5-3.5,3.8s-4.2-0.9-4.5-2.6S187.1,48.4,189.3,48.1"/>
	</g>
</g>
<g>
	<defs>
		<path id="SVGID_48_" d="M189.3,48.1c-2.2,0.3-3.8,2-3.5,3.8s2.3,2.9,4.5,2.6s3.8-2,3.5-3.8c-0.4-1.7-2-2.8-3.8-2.7
			C189.8,48.1,189.5,48.1,189.3,48.1"/>
	</defs>
	<clipPath id="SVGID_49_">
		<use xlink:href="#SVGID_48_"  style="overflow:visible;"/>
	</clipPath>
	<g class="st27">
		<path class="st5" d="M187.9,49.1c2.2-0.3,4.2,0.9,4.5,2.6s-1.3,3.5-3.5,3.8s-4.2-0.9-4.5-2.6S185.7,49.4,187.9,49.1"/>
	</g>
</g>
<g>
	<defs>
		<path id="SVGID_50_" d="M71.7,40.4c3.3,15.9,47.8,36,87.9,21.4c34.9-12.8,63.8,18.3,40.4,39.1c-15.6,14-54.9,48.2-43.2,99.1H232
			c3.5-0.1,7.9-2.1,8.7-2.9c-27-45.6,6.3-111.6-9.7-135.6c-15.2-22.8-54.6-29.2-80.3-16.6s-65.6,2.5-67.2-8.3
			c-1.4-9.3,24.3-8.7,31.1-5.8c8.3,3.6,11.5-3.4-7.1-7.4c-4.3-1-8.8-1.5-13.2-1.5C78.4,21.8,69.4,29.5,71.7,40.4"/>
	</defs>
	<clipPath id="SVGID_51_">
		<use xlink:href="#SVGID_50_"  style="overflow:visible;"/>
	</clipPath>
	<g class="st28">
		<path class="st3" d="M176.4,48.6c2.1,0.6,3.5,2.5,3,4.2s-2.6,2.6-4.8,2s-3.5-2.5-3-4.2S174.2,48,176.4,48.6"/>
	</g>
</g>
<g>
	<defs>
		<path id="SVGID_52_" d="M171.6,50.7c-0.5,1.7,0.9,3.6,3,4.2s4.3-0.3,4.8-2s-0.9-3.6-3-4.2c-0.4-0.1-0.9-0.2-1.4-0.2
			C173.5,48.3,172.1,49.2,171.6,50.7"/>
	</defs>
	<clipPath id="SVGID_53_">
		<use xlink:href="#SVGID_52_"  style="overflow:visible;"/>
	</clipPath>
	<g class="st29">
		<path class="st5" d="M174.7,48.9c2.1,0.6,3.5,2.5,3,4.2s-2.6,2.6-4.8,2s-3.5-2.5-3-4.2S172.6,48.3,174.7,48.9"/>
	</g>
</g>
<g>
	<defs>
		<path id="SVGID_54_" d="M71.7,40.4c3.3,15.9,47.8,36,87.9,21.4c34.9-12.8,63.8,18.3,40.4,39.1c-15.6,14-54.9,48.2-43.2,99.1H232
			c3.5-0.1,7.9-2.1,8.7-2.9c-27-45.6,6.3-111.6-9.7-135.6c-15.2-22.8-54.6-29.2-80.3-16.6s-65.6,2.5-67.2-8.3
			c-1.4-9.3,24.3-8.7,31.1-5.8c8.3,3.6,11.5-3.4-7.1-7.4c-4.3-1-8.8-1.5-13.2-1.5C78.4,21.8,69.4,29.5,71.7,40.4"/>
	</defs>
	<clipPath id="SVGID_55_">
		<use xlink:href="#SVGID_54_"  style="overflow:visible;"/>
	</clipPath>
	<g class="st30">
		<path class="st3" d="M160.3,51.3c1.8-0.2,3.4,1.2,3.6,3s-1.2,3.4-3,3.6c-1.7,0.1-3.3-1.1-3.6-2.8
			C157.1,53.2,158.4,51.5,160.3,51.3"/>
	</g>
</g>
<g>
	<defs>
		<path id="SVGID_56_" d="M160.3,51.3c-1.8,0.4-2.9,2.2-2.5,4c0.4,1.8,2.2,2.9,4,2.5c1.7-0.4,2.8-2,2.6-3.7
			c-0.3-1.7-1.7-2.9-3.4-2.8C160.7,51.3,160.5,51.3,160.3,51.3"/>
	</defs>
	<clipPath id="SVGID_57_">
		<use xlink:href="#SVGID_56_"  style="overflow:visible;"/>
	</clipPath>
	<g class="st31">
		<path class="st5" d="M159.1,52.2c1.8-0.2,3.4,1.2,3.6,3s-1.2,3.4-3,3.6c-1.7,0.1-3.3-1.1-3.6-2.8
			C155.9,54.1,157.2,52.5,159.1,52.2"/>
	</g>
</g>
<g>
	<defs>
		<path id="SVGID_58_" d="M71.7,40.4c3.3,15.9,47.8,36,87.9,21.4c34.9-12.8,63.8,18.3,40.4,39.1c-15.6,14-54.9,48.2-43.2,99.1H232
			c3.5-0.1,7.9-2.1,8.7-2.9c-27-45.6,6.3-111.6-9.7-135.6c-15.2-22.8-54.6-29.2-80.3-16.6s-65.6,2.5-67.2-8.3
			c-1.4-9.3,24.3-8.7,31.1-5.8c8.3,3.6,11.5-3.4-7.1-7.4c-4.3-1-8.8-1.5-13.2-1.5C78.4,21.8,69.4,29.5,71.7,40.4"/>
	</defs>
	<clipPath id="SVGID_59_">
		<use xlink:href="#SVGID_58_"  style="overflow:visible;"/>
	</clipPath>
	<g class="st32">
		<path class="st3" d="M144.6,54.8c2-0.6,4.1,0.2,4.6,1.8s-0.7,3.4-2.8,4.1s-4.1-0.2-4.6-1.8S142.6,55.4,144.6,54.8"/>
	</g>
</g>
<g>
	<defs>
		<path id="SVGID_60_" d="M144.6,54.8c-2,0.6-3.3,2.5-2.8,4.1s2.6,2.4,4.6,1.8s3.3-2.5,2.8-4.1c-0.5-1.3-1.8-2.1-3.2-2
			C145.5,54.6,145.1,54.7,144.6,54.8"/>
	</defs>
	<clipPath id="SVGID_61_">
		<use xlink:href="#SVGID_60_"  style="overflow:visible;"/>
	</clipPath>
	<g class="st33">
		<path class="st5" d="M143.5,55.8c2-0.6,4.1,0.2,4.6,1.8s-0.7,3.4-2.8,4.1s-4.1-0.2-4.6-1.8S141.5,56.5,143.5,55.8"/>
	</g>
</g>
<g>
	<defs>
		<path id="SVGID_62_" d="M71.7,40.4c3.3,15.9,47.8,36,87.9,21.4c34.9-12.8,63.8,18.3,40.4,39.1c-15.6,14-54.9,48.2-43.2,99.1H232
			c3.5-0.1,7.9-2.1,8.7-2.9c-27-45.6,6.3-111.6-9.7-135.6c-15.2-22.8-54.6-29.2-80.3-16.6s-65.6,2.5-67.2-8.3
			c-1.4-9.3,24.3-8.7,31.1-5.8c8.3,3.6,11.5-3.4-7.1-7.4c-4.3-1-8.8-1.5-13.2-1.5C78.4,21.8,69.4,29.5,71.7,40.4"/>
	</defs>
	<clipPath id="SVGID_63_">
		<use xlink:href="#SVGID_62_"  style="overflow:visible;"/>
	</clipPath>
	<g class="st34">
		<path class="st3" d="M129.4,56.9c2-0.3,3.9,0.8,4.1,2.4s-1.2,3.2-3.3,3.5s-3.9-0.8-4.1-2.4S127.4,57.2,129.4,56.9"/>
	</g>
</g>
<g>
	<defs>
		<path id="SVGID_64_" d="M129.4,56.9c-2,0.3-3.5,1.8-3.3,3.5s2.1,2.7,4.1,2.4s3.5-1.8,3.3-3.5c-0.4-1.6-1.8-2.6-3.4-2.5
			C129.9,56.9,129.7,56.9,129.4,56.9"/>
	</defs>
	<clipPath id="SVGID_65_">
		<use xlink:href="#SVGID_64_"  style="overflow:visible;"/>
	</clipPath>
	<g class="st35">
		<path class="st5" d="M128.2,57.8c2-0.3,3.9,0.8,4.1,2.4s-1.2,3.2-3.3,3.5s-3.9-0.8-4.1-2.4S126.1,58.1,128.2,57.8"/>
	</g>
</g>
<g>
	<defs>
		<path id="SVGID_66_" d="M71.7,40.4c3.3,15.9,47.8,36,87.9,21.4c34.9-12.8,63.8,18.3,40.4,39.1c-15.6,14-54.9,48.2-43.2,99.1H232
			c3.5-0.1,7.9-2.1,8.7-2.9c-27-45.6,6.3-111.6-9.7-135.6c-15.2-22.8-54.6-29.2-80.3-16.6s-65.6,2.5-67.2-8.3
			c-1.4-9.3,24.3-8.7,31.1-5.8c8.3,3.6,11.5-3.4-7.1-7.4c-4.3-1-8.8-1.5-13.2-1.5C78.4,21.8,69.4,29.5,71.7,40.4"/>
	</defs>
	<clipPath id="SVGID_67_">
		<use xlink:href="#SVGID_66_"  style="overflow:visible;"/>
	</clipPath>
	<g class="st36">
		<path class="st3" d="M114.8,57.6c1.8,0.5,3,2.2,2.5,3.7s-2.3,2.2-4.1,1.7s-3-2.2-2.5-3.7S113,57,114.8,57.6"/>
	</g>
</g>
<g>
	<defs>
		<path id="SVGID_68_" d="M110.7,59.3c-0.4,1.5,0.7,3.1,2.5,3.7s3.7-0.2,4.1-1.7s-0.7-3.1-2.5-3.7c-0.4-0.1-0.8-0.2-1.2-0.2
			C112.3,57.3,111.2,58.1,110.7,59.3"/>
	</defs>
	<clipPath id="SVGID_69_">
		<use xlink:href="#SVGID_68_"  style="overflow:visible;"/>
	</clipPath>
	<g class="st37">
		<path class="st5" d="M113.4,57.8c1.8,0.5,3,2.2,2.5,3.7s-2.3,2.2-4.1,1.7s-3-2.2-2.5-3.7S111.6,57.3,113.4,57.8"/>
	</g>
</g>
<g>
	<defs>
		<path id="SVGID_70_" d="M71.7,40.4c3.3,15.9,47.8,36,87.9,21.4c34.9-12.8,63.8,18.3,40.4,39.1c-15.6,14-54.9,48.2-43.2,99.1H232
			c3.5-0.1,7.9-2.1,8.7-2.9c-27-45.6,6.3-111.6-9.7-135.6c-15.2-22.8-54.6-29.2-80.3-16.6s-65.6,2.5-67.2-8.3
			c-1.4-9.3,24.3-8.7,31.1-5.8c8.3,3.6,11.5-3.4-7.1-7.4c-4.3-1-8.8-1.5-13.2-1.5C78.4,21.8,69.4,29.5,71.7,40.4"/>
	</defs>
	<clipPath id="SVGID_71_">
		<use xlink:href="#SVGID_70_"  style="overflow:visible;"/>
	</clipPath>
	<g class="st38">
		<path class="st3" d="M101.1,55.5c1.3,0.3,2.2,1.7,1.9,3c-0.2,1.5-1.6,2.7-3.1,2.5c-1.5-0.2-2.7-1.6-2.5-3.1
			c0.2-1.5,1.6-2.7,3.1-2.5C100.7,55.4,100.9,55.4,101.1,55.5"/>
	</g>
</g>
<g>
	<defs>
		<path id="SVGID_72_" d="M97.8,56.7c-0.2,1.5,1,2.9,2.5,3.1c1.1,0.1,2.1-0.4,2.7-1.3c0.3-1.3-0.5-2.7-1.9-3
			c-0.3-0.1-0.7-0.2-1.1-0.2C99.1,55.2,98.2,55.8,97.8,56.7"/>
	</defs>
	<clipPath id="SVGID_73_">
		<use xlink:href="#SVGID_72_"  style="overflow:visible;"/>
	</clipPath>
	<g class="st39">
		<path class="st5" d="M100,55.6c1.3,0.3,2.2,1.7,1.9,3c-0.2,1.5-1.6,2.7-3.1,2.5c-1.5-0.2-2.7-1.6-2.5-3.1c0.2-1.5,1.6-2.7,3.1-2.5
			C99.6,55.5,99.8,55.5,100,55.6"/>
	</g>
</g>
<g>
	<defs>
		<path id="SVGID_74_" d="M71.7,40.4c3.3,15.9,47.8,36,87.9,21.4c34.9-12.8,63.8,18.3,40.4,39.1c-15.6,14-54.9,48.2-43.2,99.1H232
			c3.5-0.1,7.9-2.1,8.7-2.9c-27-45.6,6.3-111.6-9.7-135.6c-15.2-22.8-54.6-29.2-80.3-16.6s-65.6,2.5-67.2-8.3
			c-1.4-9.3,24.3-8.7,31.1-5.8c8.3,3.6,11.5-3.4-7.1-7.4c-4.3-1-8.8-1.5-13.2-1.5C78.4,21.8,69.4,29.5,71.7,40.4"/>
	</defs>
	<clipPath id="SVGID_75_">
		<use xlink:href="#SVGID_74_"  style="overflow:visible;"/>
	</clipPath>
	<g class="st40">
		<path class="st3" d="M89.1,50.1c1.3,0.6,1.9,2.1,1.3,3.4c-0.5,1.6-2.1,2.4-3.7,1.9c-1.6-0.5-2.4-2.1-1.9-3.7
			c0.5-1.6,2.1-2.4,3.7-1.9C88.7,49.9,88.9,50,89.1,50.1"/>
	</g>
</g>
<g>
	<defs>
		<path id="SVGID_76_" d="M85.5,50.7c-0.5,1.5,0.3,3.2,1.9,3.7c1.1,0.4,2.3,0,3.1-0.9c0.6-1.3,0-2.8-1.3-3.4
			c-0.5-0.3-1.1-0.5-1.7-0.5C86.7,49.6,85.9,50,85.5,50.7"/>
	</defs>
	<clipPath id="SVGID_77_">
		<use xlink:href="#SVGID_76_"  style="overflow:visible;"/>
	</clipPath>
	<g class="st41">
		<path class="st5" d="M88,50c1.3,0.6,1.9,2.1,1.3,3.4c-0.5,1.6-2.1,2.4-3.7,1.9c-1.6-0.5-2.4-2.1-1.9-3.7c0.5-1.6,2.1-2.4,3.7-1.9
			C87.6,49.8,87.8,49.9,88,50"/>
	</g>
</g>
<g>
	<defs>
		<path id="SVGID_78_" d="M71.7,40.4c3.3,15.9,47.8,36,87.9,21.4c34.9-12.8,63.8,18.3,40.4,39.1c-15.6,14-54.9,48.2-43.2,99.1H232
			c3.5-0.1,7.9-2.1,8.7-2.9c-27-45.6,6.3-111.6-9.7-135.6c-15.2-22.8-54.6-29.2-80.3-16.6s-65.6,2.5-67.2-8.3
			c-1.4-9.3,24.3-8.7,31.1-5.8c8.3,3.6,11.5-3.4-7.1-7.4c-4.3-1-8.8-1.5-13.2-1.5C78.4,21.8,69.4,29.5,71.7,40.4"/>
	</defs>
	<clipPath id="SVGID_79_">
		<use xlink:href="#SVGID_78_"  style="overflow:visible;"/>
	</clipPath>
	<g class="st42">
		<path class="st3" d="M81.8,43c1.1,0.8,1.2,2.4,0.4,3.4s-2.4,1.2-3.4,0.4c-0.3-0.2-0.5-0.5-0.7-0.8c-1.1-0.8-1.2-2.4-0.4-3.4
			s2.4-1.2,3.4-0.4C81.4,42.4,81.6,42.7,81.8,43"/>
	</g>
</g>
<g>
	<defs>
		<path id="SVGID_80_" d="M78,42.2c-1.1,1.3-0.8,3.2,0.5,4.3c0.9,0.7,2.2,0.9,3.3,0.4c1-1.1,1-2.8,0-3.8c-0.6-0.8-1.5-1.2-2.4-1.3
			C78.8,41.7,78.4,41.9,78,42.2"/>
	</defs>
	<clipPath id="SVGID_81_">
		<use xlink:href="#SVGID_80_"  style="overflow:visible;"/>
	</clipPath>
	<g class="st43">
		<path class="st5" d="M80.7,42.5c1.1,0.8,1.2,2.4,0.4,3.4s-2.4,1.2-3.4,0.4c-0.3-0.2-0.5-0.5-0.7-0.8c-1.1-0.8-1.2-2.4-0.4-3.4
			s2.4-1.2,3.4-0.4C80.3,41.9,80.5,42.2,80.7,42.5"/>
	</g>
</g>
<g>
	<defs>
		<path id="SVGID_82_" d="M71.7,40.4c3.3,15.9,47.8,36,87.9,21.4c34.9-12.8,63.8,18.3,40.4,39.1c-15.6,14-54.9,48.2-43.2,99.1H232
			c3.5-0.1,7.9-2.1,8.7-2.9c-27-45.6,6.3-111.6-9.7-135.6c-15.2-22.8-54.6-29.2-80.3-16.6s-65.6,2.5-67.2-8.3
			c-1.4-9.3,24.3-8.7,31.1-5.8c8.3,3.6,11.5-3.4-7.1-7.4c-4.3-1-8.8-1.5-13.2-1.5C78.4,21.8,69.4,29.5,71.7,40.4"/>
	</defs>
	<clipPath id="SVGID_83_">
		<use xlink:href="#SVGID_82_"  style="overflow:visible;"/>
	</clipPath>
	<g class="st44">
		<path class="st3" d="M78.7,34c0.3,1.1-0.3,2.2-1.3,2.5s-2.2-0.3-2.5-1.3c-0.1-0.2-0.1-0.5-0.1-0.7c-0.3-1.1,0.3-2.2,1.3-2.5
			s2.2,0.3,2.5,1.3C78.7,33.5,78.7,33.8,78.7,34"/>
	</g>
</g>
<g>
	<defs>
		<path id="SVGID_84_" d="M76.5,31.8c-1.2,0.3-1.9,1.5-1.7,2.7c-0.1,1.1,0.8,2,1.9,2.1c1.1,0.1,2-0.8,2.1-1.9c0-0.2,0-0.5-0.1-0.7
			c0-1.2-0.9-2.1-2.1-2.2L76.5,31.8"/>
	</defs>
	<clipPath id="SVGID_85_">
		<use xlink:href="#SVGID_84_"  style="overflow:visible;"/>
	</clipPath>
	<g class="st45">
		<path class="st5" d="M78.2,33.2c0.3,1.1-0.3,2.2-1.3,2.5s-2.2-0.3-2.5-1.3c-0.1-0.2-0.1-0.5-0.1-0.7c-0.3-1.1,0.3-2.2,1.3-2.5
			s2.2,0.3,2.5,1.3C78.2,32.7,78.2,32.9,78.2,33.2"/>
	</g>
</g>
<g>
	<defs>
		<path id="SVGID_86_" d="M71.7,40.4c3.3,15.9,47.8,36,87.9,21.4c34.9-12.8,63.8,18.3,40.4,39.1c-15.6,14-54.9,48.2-43.2,99.1H232
			c3.5-0.1,7.9-2.1,8.7-2.9c-27-45.6,6.3-111.6-9.7-135.6c-15.2-22.8-54.6-29.2-80.3-16.6s-65.6,2.5-67.2-8.3
			c-1.4-9.3,24.3-8.7,31.1-5.8c8.3,3.6,11.5-3.4-7.1-7.4c-4.3-1-8.8-1.5-13.2-1.5C78.4,21.8,69.4,29.5,71.7,40.4"/>
	</defs>
	<clipPath id="SVGID_87_">
		<use xlink:href="#SVGID_86_"  style="overflow:visible;"/>
	</clipPath>
	<g class="st46">
		<path class="st3" d="M84.5,27.7c-0.7,0.7-1.9,0.6-2.5-0.1c-0.5-1,0-2.2,1-2.7c0.7-0.4,1.6-0.2,2.2,0.4
			C85.7,26.1,85.4,27.2,84.5,27.7"/>
	</g>
</g>
<g>
	<defs>
		<path id="SVGID_88_" d="M82.7,25.1c-0.8,0.5-1.1,1.6-0.7,2.4c0.8,0.8,2.1,0.7,2.8-0.1c0.6-0.6,0.7-1.5,0.4-2.2
			c-0.3-0.4-0.7-0.6-1.2-0.6C83.5,24.7,83.1,24.9,82.7,25.1"/>
	</defs>
	<clipPath id="SVGID_89_">
		<use xlink:href="#SVGID_88_"  style="overflow:visible;"/>
	</clipPath>
	<g class="st47">
		<path class="st5" d="M84.9,27c-0.7,0.7-1.9,0.6-2.5-0.1c-0.5-1,0-2.2,1-2.7c0.7-0.4,1.6-0.2,2.2,0.4C86,25.4,85.7,26.5,84.9,27"/>
	</g>
</g>
<g>
	<defs>
		<path id="SVGID_90_" d="M71.7,40.4c3.3,15.9,47.8,36,87.9,21.4c34.9-12.8,63.8,18.3,40.4,39.1c-15.6,14-54.9,48.2-43.2,99.1H232
			c3.5-0.1,7.9-2.1,8.7-2.9c-27-45.6,6.3-111.6-9.7-135.6c-15.2-22.8-54.6-29.2-80.3-16.6s-65.6,2.5-67.2-8.3
			c-1.4-9.3,24.3-8.7,31.1-5.8c8.3,3.6,11.5-3.4-7.1-7.4c-4.3-1-8.8-1.5-13.2-1.5C78.4,21.8,69.4,29.5,71.7,40.4"/>
	</defs>
	<clipPath id="SVGID_91_">
		<use xlink:href="#SVGID_90_"  style="overflow:visible;"/>
	</clipPath>
	<g class="st48">
		<path class="st3" d="M92.1,26c-0.9,0.3-1.9-0.3-2.2-1.2c0-1.1,1-2,2.1-1.9c0.8,0,1.5,0.5,1.8,1.3C93.8,25.1,93.1,25.9,92.1,26"/>
	</g>
</g>
<g>
	<defs>
		<path id="SVGID_92_" d="M91.6,22.9c-1,0.1-1.7,0.9-1.7,1.9c0.4,1,1.5,1.6,2.6,1.2c0.8-0.3,1.3-1,1.3-1.8c-0.2-0.8-1-1.3-1.8-1.3
			C91.9,22.8,91.7,22.8,91.6,22.9"/>
	</defs>
	<clipPath id="SVGID_93_">
		<use xlink:href="#SVGID_92_"  style="overflow:visible;"/>
	</clipPath>
	<g class="st49">
		<path class="st5" d="M92.7,25.5c-0.9,0.3-1.9-0.3-2.2-1.2c0-1.1,1-2,2.1-1.9c0.8,0,1.5,0.5,1.8,1.3C94.5,24.6,93.7,25.5,92.7,25.5
			"/>
	</g>
</g>
<g>
	<defs>
		<path id="SVGID_94_" d="M71.7,40.4c3.3,15.9,47.8,36,87.9,21.4c34.9-12.8,63.8,18.3,40.4,39.1c-15.6,14-54.9,48.2-43.2,99.1H232
			c3.5-0.1,7.9-2.1,8.7-2.9c-27-45.6,6.3-111.6-9.7-135.6c-15.2-22.8-54.6-29.2-80.3-16.6s-65.6,2.5-67.2-8.3
			c-1.4-9.3,24.3-8.7,31.1-5.8c8.3,3.6,11.5-3.4-7.1-7.4c-4.3-1-8.8-1.5-13.2-1.5C78.4,21.8,69.4,29.5,71.7,40.4"/>
	</defs>
	<clipPath id="SVGID_95_">
		<use xlink:href="#SVGID_94_"  style="overflow:visible;"/>
	</clipPath>
	<g class="st50">
		<path class="st3" d="M100.4,25.3c-0.7,0-1.3-0.5-1.4-1.3c0.2-0.8,1-1.3,1.8-1.1c0.7,0.1,1.1,0.7,1.2,1.4
			C101.8,25,101.2,25.4,100.4,25.3"/>
	</g>
</g>
<g>
	<defs>
		<path id="SVGID_96_" d="M99,24c0,0.8,0.8,1.5,1.6,1.4c0.7,0,1.2-0.5,1.4-1.2c0-0.7-0.6-1.3-1.4-1.3h-0.2
			C99.8,22.9,99.1,23.3,99,24"/>
	</defs>
	<clipPath id="SVGID_97_">
		<use xlink:href="#SVGID_96_"  style="overflow:visible;"/>
	</clipPath>
	<g class="st51">
		<path class="st5" d="M101,25c-0.7,0-1.3-0.6-1.4-1.3c0.2-0.8,1-1.3,1.8-1.1c0.7,0.1,1.1,0.7,1.2,1.4C102.5,24.7,101.7,25.2,101,25
			C101,25,101,25,101,25"/>
	</g>
</g>
<g>
	<defs>
		<path id="SVGID_98_" d="M71.7,40.4c3.3,15.9,47.8,36,87.9,21.4c34.9-12.8,63.8,18.3,40.4,39.1c-15.6,14-54.9,48.2-43.2,99.1H232
			c3.5-0.1,7.9-2.1,8.7-2.9c-27-45.6,6.3-111.6-9.7-135.6c-15.2-22.8-54.6-29.2-80.3-16.6s-65.6,2.5-67.2-8.3
			c-1.4-9.3,24.3-8.7,31.1-5.8c8.3,3.6,11.5-3.4-7.1-7.4c-4.3-1-8.8-1.5-13.2-1.5C78.4,21.8,69.4,29.5,71.7,40.4"/>
	</defs>
	<clipPath id="SVGID_99_">
		<use xlink:href="#SVGID_98_"  style="overflow:visible;"/>
	</clipPath>
	<g class="st52">
		<path class="st3" d="M108.2,25.9c-0.6,0-1.1-0.5-1.2-1.1c0,0,0,0,0,0c0.2-0.7,0.9-1,1.6-0.9c0.5,0.1,0.8,0.6,0.9,1.1
			C109.3,25.6,108.8,26,108.2,25.9"/>
	</g>
</g>
<g>
	<defs>
		<path id="SVGID_100_" d="M107,24.8c0.1,0.7,0.7,1.2,1.4,1.1c0.5-0.1,0.9-0.4,1.1-0.9c0-0.6-0.5-1.1-1.2-1.1h-0.1
			C107.6,23.9,107.1,24.3,107,24.8"/>
	</defs>
	<clipPath id="SVGID_101_">
		<use xlink:href="#SVGID_100_"  style="overflow:visible;"/>
	</clipPath>
	<g class="st53">
		<path class="st5" d="M108.6,25.7c-0.6,0-1.1-0.5-1.2-1.1c0.2-0.7,0.9-1,1.6-0.9c0.5,0.1,0.8,0.6,0.9,1.1
			C109.8,25.4,109.2,25.8,108.6,25.7"/>
	</g>
</g>
</svg>
