<?xml version="1.0" encoding="utf-8"?>
<!-- Generator: Adobe Illustrator 19.2.0, SVG Export Plug-In . SVG Version: 6.00 Build 0)  -->
<svg version="1.1" id="Layer_1" xmlns="http://www.w3.org/2000/svg" xmlns:xlink="http://www.w3.org/1999/xlink" x="0px" y="0px"
	 width="300px" height="200px" viewBox="0 0 300 200" style="enable-background:new 0 0 300 200;" xml:space="preserve">
<style type="text/css">
	.st0{clip-path:url(#SVGID_2_);}
	.st1{fill:#4D4F63;}
	.st2{clip-path:url(#SVGID_4_);}
	.st3{fill:#72EDFC;}
	.st4{fill:#8A878E;}
	.st5{fill:#FF896B;}
	.st6{fill:#FFF9FA;}
</style>
<title>wd-website</title>
<g>
	<defs>
		<rect id="SVGID_1_" width="300" height="200"/>
	</defs>
	<clipPath id="SVGID_2_">
		<use xlink:href="#SVGID_1_"  style="overflow:visible;"/>
	</clipPath>
	<g class="st0">
		<rect x="48" y="51" class="st1" width="75" height="91"/>
	</g>
</g>
<g>
	<defs>
		<rect id="SVGID_3_" width="300" height="200"/>
	</defs>
	<clipPath id="SVGID_4_">
		<use xlink:href="#SVGID_3_"  style="overflow:visible;"/>
	</clipPath>
	<g class="st2">
		<rect x="54" y="57" class="st3" width="14" height="3"/>
		<rect x="60" y="108" class="st3" width="39" height="3"/>
		<rect x="54" y="133" class="st3" width="16" height="3"/>
		<rect x="72" y="122" class="st4" width="45" height="3"/>
		<rect x="54" y="64" class="st5" width="14" height="3"/>
		<rect x="59" y="82" class="st5" width="9" height="3"/>
		<rect x="71" y="82" class="st6" width="20" height="3"/>
		<rect x="87" y="89" class="st5" width="8" height="3"/>
		<rect x="102" y="108" class="st5" width="9" height="3"/>
		<rect x="74" y="133" class="st6" width="8" height="3"/>
		<rect x="65" y="89" class="st6" width="18" height="3"/>
		<rect x="87" y="115" class="st4" width="8" height="3"/>
		<rect x="98" y="115" class="st4" width="9" height="3"/>
		<rect x="65" y="115" class="st4" width="18" height="3"/>
		<rect x="98" y="89" class="st6" width="19" height="3"/>
		<rect x="54" y="75" class="st4" width="22" height="3"/>
		<rect x="54" y="101" class="st5" width="7" height="3"/>
		<rect x="79" y="75" class="st6" width="22" height="3"/>
	</g>
</g>
</svg>
